<svg width="880" height="140" viewBox="0 0 880 140" fill="none" xmlns="http://www.w3.org/2000/svg">
<path d="M434.838 0.823216C440.645 -1.30766 454.438 1.44472 438.629 0.823216C436.935 1.66669 436.612 1.08958 434.838 0.823216ZM729.408 1.53353C725.133 1.97746 717.632 0.645675 715.534 2.24384C721.181 2.99852 726.424 3.22047 729.408 1.53353ZM243.996 4.28589C248.997 4.95179 259.644 4.55223 265.452 3.57558C257.708 3.08725 250.772 2.82091 243.996 4.28589ZM756.026 4.28589C752.557 4.50786 747.153 2.28819 744.653 4.28589C749.412 3.35363 753.364 6.37238 756.026 4.28589ZM343.853 8.45887C356.194 8.45887 368.374 8.68084 374.181 6.37238C362.808 6.37238 350.629 5.92845 343.853 8.45887ZM285.698 7.793C283.52 6.63877 272.711 6.63877 270.533 7.793C274.889 8.94723 278.922 7.21589 285.698 7.793ZM723.116 10.5454C729.892 11.1225 733.925 9.39114 738.28 10.5454C737.313 7.6598 724.81 9.30235 723.116 10.5454ZM766.108 10.5454C766.431 8.01495 753.848 8.99158 752.235 9.83506C759.655 11.1669 760.623 10.2346 766.108 10.5454ZM278.116 10.5454C277.632 9.34675 276.502 10.6785 274.324 10.5454C267.146 10.9893 256.66 9.61312 251.578 11.2557C259.16 11.6996 270.13 10.3234 275.615 11.966C277.551 10.6786 290.698 11.9659 288.279 10.5897H278.196L278.116 10.5454ZM101.067 23.7746C103.648 23.3306 109.859 24.8844 108.649 22.3984C105.261 22.3984 101.228 21.9988 101.067 23.7746ZM825.555 28.6579C829.346 27.8144 832.572 28.8354 836.928 27.2817C832.733 27.0153 827.087 25.9499 825.555 28.6579ZM879.839 43.2632C879.597 40.644 873.225 38.8239 870.966 41.1767C874.273 43.1744 875.725 42.5529 879.839 43.2632ZM23.956 59.2892C30.1668 59.378 40.4106 59.9996 41.6205 58.579C32.3446 57.5135 30.2475 57.2471 23.956 59.2892ZM15.1641 66.9249C17.7452 66.5253 23.472 67.7683 24.0367 66.2146C21.6975 64.9272 16.9386 65.8595 15.1641 66.9249ZM36.6196 69.0114C37.6682 67.502 43.1531 68.4343 44.2016 66.9249C41.1366 65.5043 33.0706 67.2356 36.6196 69.0114ZM26.5371 71.8082C26.2951 70.7871 27.0211 69.2334 25.2466 69.0114C25.0046 69.8105 23.2301 69.7661 21.4555 69.7217C22.5041 71.675 19.681 71.5418 20.165 73.1844C24.0367 73.7171 22.5848 71.2755 26.4565 71.8082H26.5371ZM123.894 94.0492C124.862 91.6076 113.489 92.4066 112.521 93.3389C117.522 94.3156 119.377 92.8062 123.894 94.0492ZM122.603 98.9325C119.377 98.7105 114.537 97.9559 111.23 99.6428H123.894V98.2666C123.894 97.5563 121.716 97.3787 121.393 98.2666C122.2 98.2666 122.845 98.3554 122.684 98.9769L122.603 98.9325ZM55.5747 112.162C60.4143 112.25 64.7699 112.162 66.9477 110.786C62.6728 111.007 58.3171 111.141 55.5747 112.162ZM104.858 119.131C100.341 119.442 86.7094 118.421 88.4033 119.842C93.5655 120.641 115.666 119.842 104.858 119.131ZM135.267 119.131C116.876 118.332 119.538 121.262 135.267 119.131V119.131ZM150.431 124.681C153.819 124.237 160.433 125.569 161.804 123.97C160.836 123.082 148.253 123.97 150.431 124.681ZM185.84 126.057C189.47 126.146 194.148 125.657 195.923 126.767C197.859 124.103 181.808 125.435 185.84 126.057ZM332.48 133.027C336.755 132.583 344.257 133.914 346.354 132.316C339.901 132.005 337.078 131.206 332.48 133.027ZM360.308 132.316C356.436 132.76 349.419 131.428 347.644 133.027C351.516 132.583 358.533 133.914 360.308 132.316ZM188.341 133.737C187.938 132.094 185.841 134.98 184.55 135.113C200.682 135.779 215.604 134.136 231.333 135.823C217.056 132.272 200.924 135.513 188.341 133.737ZM269.243 135.823C273.195 135.957 278.519 135.379 280.616 136.534C279.89 133.737 271.582 134.27 269.243 135.823ZM70.7388 136.489C76.7883 136.578 82.1925 136.267 85.9028 135.069C80.0953 135.069 74.6911 135.379 70.7388 136.489ZM297.071 135.113C296.909 136.667 293.925 134.225 290.779 135.113C288.601 137.865 302.878 136.445 297.071 135.113ZM439.919 135.823C417.577 137.022 445.807 138.354 451.292 135.823C447.098 135.912 442.581 135.69 439.919 135.823ZM611.886 137.91C619.065 138.842 642.94 139.774 649.797 137.91C636.326 136.223 622.614 138.354 611.886 137.91ZM94.7754 139.996C99.5344 140.041 103.487 139.686 106.148 138.62C101.39 138.576 97.4372 138.931 94.7754 139.996ZM781.272 2.90971C778.772 1.44473 769.738 0.0241359 767.399 0.823216C772.561 0.823216 778.61 3.88636 781.272 2.90971ZM414.673 2.1994C419.351 2.1994 429.676 1.66669 428.627 0.823216C423.465 1.00079 418.302 1.17835 414.673 2.1994ZM324.898 4.9962C331.351 5.12938 339.498 3.70878 343.853 6.37238C341.353 8.01494 331.351 5.52891 331.19 8.45887C341.595 9.83507 354.581 1.35592 359.017 5.66207C367.164 3.39801 375.875 5.12936 388.136 4.28589H391.927C393.379 4.1971 395.476 4.41905 395.718 3.57558C369.745 1.97742 336.271 2.64332 321.107 3.57558C324.576 3.48679 327.641 3.44246 324.898 4.95183V4.9962ZM198.423 3.62002C194.552 3.62002 187.131 1.53355 185.76 4.33033C190.922 2.86535 193.907 5.0406 198.423 3.62002ZM280.616 3.62002C275.534 3.62002 271.34 3.66443 270.533 4.33033C273.276 6.46121 278.035 5.21818 280.616 3.62002ZM534.775 6.37238C563.006 4.9518 598.658 8.28129 627.05 7.74857C630.035 7.70417 638.746 9.08038 638.423 6.37238C638.423 5.92845 638.262 5.52889 637.133 5.66207C601.401 6.19479 573.17 3.88636 534.695 6.37238H534.775ZM533.485 5.70651C514.53 6.32802 499.204 6.46119 484.202 7.08269C499.688 6.94951 470.247 5.39573 477.91 8.45887C465.892 5.92845 448.631 6.37237 436.209 7.74857C440.161 7.70417 443.226 8.05931 445.082 9.12475C417.173 9.83504 389.346 7.52659 361.598 9.12475C370.068 11.3444 382.812 9.08036 394.508 11.2112C363.292 11.9215 345.708 10.6785 319.897 11.2112C280.213 12.0547 239.641 12.4543 201.085 12.5875C202.456 12.5875 204.312 12.8982 202.376 13.2977C199.23 11.3444 190.277 12.5431 187.212 10.501C209.151 10.279 227.461 8.10374 249.159 7.7042H258.031C257.87 6.19482 252.708 7.39343 250.449 6.99389C198.343 8.59205 142.445 9.52432 88.6453 13.2534C93.3236 13.6973 101.228 12.3655 103.809 13.9637C102.277 14.0525 100.18 13.8304 100.018 14.6739C105.584 14.23 117.118 17.1156 124.055 13.9637C114.698 13.6085 110.181 14.5408 105.1 12.5875C129.54 11.8328 161.078 11.3445 183.501 13.9637C169.709 13.3866 145.833 12.765 126.636 15.3399C130.427 16.8936 134.379 14.3188 135.509 16.716C112.601 15.2511 92.517 22.6648 74.8524 19.5128C65.1732 17.7815 50.3318 23.5082 38.1521 20.889C30.4088 23.9522 20.8909 26.0387 16.6966 29.235C24.3593 27.4149 37.9102 28.8354 41.9432 25.062C54.4455 23.819 34.6838 25.062 35.6517 25.062C46.2182 22.354 59.3657 25.062 69.7709 24.3517C70.2548 23.1531 67.9157 22.576 69.7709 22.2652C78.6434 23.2419 83.5637 21.4661 92.517 20.889C92.517 21.5993 91.4684 21.7325 91.2264 22.2652C127.201 18.8913 154.222 16.8048 191.083 18.0922C188.502 18.4918 182.775 17.2488 182.211 18.8025C186.97 20.0899 207.054 19.646 201.166 17.4263C213.104 18.9357 226.493 17.5151 240.367 20.2231C220.363 19.5572 200.359 20.2231 189.793 23.0199C190.599 22.3984 192.697 20.4451 188.502 20.9334C187.212 21.7769 187.292 22.8423 186.002 23.7302C183.824 23.3307 178.581 24.5737 178.42 23.0199C181.566 23.1087 183.663 22.6647 184.711 21.6437C174.225 20.3119 167.208 19.6904 158.174 21.6437C164.546 22.7091 171.322 19.3353 173.338 22.354C146.882 26.8377 132.282 22.7092 106.31 26.527C105.342 26.3494 104.858 25.9498 105.019 25.1507C100.825 25.4171 98.7278 26.7933 96.1467 27.9475C98.4051 28.3471 103.567 27.1041 103.729 28.6579C100.18 28.5247 95.0174 29.235 94.8561 27.2817C96.308 26.9265 97.7598 26.527 98.6471 25.9055C92.1137 25.9943 88.4033 26.5713 88.5646 28.7022C69.9322 27.9031 62.5921 33.0972 48.0733 32.8752C49.7672 34.7841 29.1989 34.0739 34.1998 37.7585C35.2484 37.0926 40.7333 35.4056 41.7819 37.0482C37.5875 36.5599 39.7654 38.4688 40.4913 39.1347C35.813 38.38 36.8616 40.866 32.9093 40.5109C30.8928 37.6697 26.5371 41.2211 24.0367 37.7141C26.0532 34.1626 36.8616 35.4944 39.2007 32.1649C36.2163 35.2724 18.5518 32.6976 25.3272 35.6276C15.3254 36.3823 8.63061 36.0716 1.29056 37.0038C3.54904 37.359 0.72594 37.7585 0 38.38C2.98442 39.5786 15.9707 37.9361 12.6636 40.4665C16.2933 39.1347 30.0055 39.5342 26.5371 41.8871C22.9881 39.0015 14.8414 42.0202 12.6636 41.8871C16.5353 42.5973 9.03392 42.553 10.1632 43.9735C14.1962 43.352 11.857 46.282 15.2447 46.06C15.7287 44.8614 13.3895 44.2843 15.2447 43.9735C19.3584 44.3731 17.5839 45.4385 19.0358 46.06C20.8909 43.4408 25.8112 46.5484 26.6178 43.9735C25.6499 43.796 24.1173 43.9735 24.1173 43.2632C29.6022 42.5529 31.538 39.0459 31.6994 42.553C37.4262 38.4688 48.5573 41.6207 53.1549 37.0038C55.2521 38.6464 60.495 38.5132 65.8185 38.38C65.8185 35.8052 74.7718 34.5178 78.4821 36.2935C76.143 37.4033 74.2071 35.672 72.1906 37.6697C80.7406 36.2047 95.5014 38.602 103.809 35.5832C101.067 35.7164 99.7764 35.0061 100.018 33.4967C112.359 31.8098 131.798 32.5644 153.093 30.6999C152.205 34.4733 169.467 29.8564 169.547 34.8729C171.16 32.2537 178.904 35.4944 183.421 35.5832C171.725 36.2935 157.529 34.2958 154.383 36.9594C145.833 34.6953 131.153 35.3168 125.346 34.8729C126.233 36.4711 131.072 35.894 131.637 37.6697C129.298 37.6697 128.975 38.2024 130.346 39.0459C121.232 39.9338 119.619 38.6019 113.892 38.3356C113.408 39.5342 115.747 40.1113 113.892 40.4221C112.359 40.9104 103.245 39.3123 102.519 39.7118C97.3566 43.0857 78.5628 41.8871 82.2731 44.5951C72.1907 45.3053 63.802 46.7703 54.4455 45.9712C56.3006 45.8381 59.1237 46.2376 59.527 45.261C56.1393 45.5273 44.121 44.6394 46.8634 45.9712C48.7186 46.3708 53.3969 45.1722 53.1549 46.6815C41.6205 50.233 19.3584 47.2143 17.7452 53.6513C15.8093 50.4106 27.8277 52.0976 24.0367 53.6513C28.473 51.5204 37.9908 52.4083 41.7012 52.941C39.604 52.4527 36.2163 54.3172 39.2007 54.3172C43.5564 53.6957 47.1054 52.6747 49.2832 50.8545C55.2521 51.7868 60.4143 52.8966 66.9477 51.5648C63.56 50.0111 58.2365 51.6536 51.7837 50.1886C61.7049 50.7213 72.2713 46.6372 85.9028 49.4783C79.4501 50.4106 72.9973 47.8358 69.4482 49.4783C77.8369 49.5671 68.077 50.6326 66.9477 51.5648C74.7718 52.4083 86.2255 49.9667 97.2759 47.3919C100.099 48.5461 115.586 47.525 122.522 48.1022C101.067 50.4994 84.1283 51.7424 59.2851 54.3616V52.2751C56.0587 53.6513 53.4775 51.5648 51.703 52.9854C52.5096 54.184 57.6719 52.941 57.9945 54.3616C50.6545 54.2728 43.879 54.4948 40.33 56.4481C53.9615 56.2705 60.7369 54.1396 69.4482 56.4481C60.3336 57.3359 62.6728 56.9364 54.2841 58.5345C63.4794 58.8453 64.9313 59.378 70.7388 57.1584C70.7388 58.1794 65.4152 59.378 70.7388 59.2449C71.3841 57.0252 79.5307 55.2938 83.4024 57.1584C81.1439 57.5579 78.1595 57.5135 77.1109 58.5345C78.9661 58.6677 81.7892 58.2682 82.1925 59.2449C75.2557 60.9762 76.7076 57.3359 73.3199 58.5345C74.2878 58.6677 74.7718 59.1117 74.6105 59.9107C66.0605 60.621 59.1237 59.4668 51.8643 59.9107C53.7195 62.5299 48.396 61.2425 49.3639 63.3734C56.3006 63.6398 63.0761 60.621 64.528 63.3734C65.7379 62.6631 67.0284 61.9528 68.319 61.2869C75.2557 62.5743 77.0303 63.1071 79.692 65.4599C74.1265 65.815 74.1265 66.4366 73.4006 64.7497C72.352 66.259 66.8671 65.3267 65.8185 66.8361C68.561 68.523 75.5784 65.4599 80.9826 67.5464C73.0779 69.4109 63.0761 67.28 58.2365 69.6329C60.8176 70.0324 66.5445 68.7894 67.1091 70.3432C58.1558 69.1446 54.8488 74.6937 48.154 72.4297C49.6059 72.3409 51.703 72.5629 51.945 71.7194C44.6856 70.7871 35.329 71.1866 27.9083 67.5464C29.0376 69.988 34.6031 70.3432 35.4904 71.0535C35.9743 72.6961 29.7635 70.654 31.6994 73.14C35.571 75.4484 40.6526 72.6516 44.363 73.8502C38.3135 74.9157 34.5224 75.4484 29.1989 73.8502C27.8277 74.5161 28.7956 76.425 25.4079 75.9367C19.7617 75.5816 30.5701 76.647 36.7809 75.9367C36.3776 79.4882 53.3969 76.3807 59.527 75.2265C54.2841 73.4951 44.7663 77.2685 38.0715 75.9367C52.429 71.3198 74.2071 74.8269 89.9358 73.8502C86.7094 72.6072 76.8689 74.4717 73.4812 71.7637C85.2576 73.3619 85.5802 70.2988 93.7268 70.3876C94.8561 72.6072 90.4198 71.8526 89.9358 73.1844C92.1943 73.5839 95.1787 71.1423 96.2273 73.1844C90.9844 73.2731 95.9853 73.6283 96.2273 74.5605C86.3061 76.0699 75.659 75.1821 65.8992 75.2709C68.8029 75.4484 70.6581 75.0933 70.9807 73.8947C66.1412 75.9812 61.4629 73.2288 60.8983 75.2709C61.3016 76.7358 64.286 74.2498 64.6893 76.647C60.011 77.6237 48.7993 77.091 43.2337 79.4438C44.6856 80.8644 43.1531 80.0653 45.7342 80.82C42.3465 82.7289 41.2979 80.3317 38.1521 80.1097C22.2621 82.9065 36.8616 80.3761 44.4436 82.9065C41.1366 84.5047 40.1687 83.0397 36.8616 84.2827C41.7818 85.3037 37.1036 85.3481 35.571 86.3692C46.4601 86.6356 53.6389 78.7779 64.6086 84.2827C58.1558 84.1495 57.6719 84.4603 62.1082 85.6589C57.0266 85.4369 55.0907 86.9019 49.4445 86.3692C49.2026 90.3646 61.1402 87.3458 62.1082 87.7454C64.2053 85.7033 78.2402 87.479 84.8543 84.9486C82.1925 84.549 76.5463 85.7921 75.9817 84.2383C84.5316 83.4836 91.3877 84.4603 98.7278 82.1518C93.4849 82.4626 99.6957 80.4205 96.2273 79.355C92.1137 79.6658 85.2576 78.4228 84.8543 80.7312C86.7094 80.8644 89.5325 80.4649 89.9358 81.4415C85.0962 83.7944 79.3694 81.4415 74.7718 83.528C78.3208 80.6868 69.7709 83.1729 70.9807 80.7312C79.0467 81.042 81.8699 81.4415 84.8543 79.355C75.0944 79.0887 66.8671 79.6658 60.8176 81.4415C62.6728 81.5747 65.4959 81.1752 65.8992 82.1518C61.2209 81.4859 53.9615 82.2406 52.0257 80.0653C66.2218 75.626 93.0009 81.7967 95.0174 75.8924C97.3566 77.2242 97.3566 76.4251 96.308 78.6892C100.986 79.2219 106.39 76.4251 108.972 76.6027C107.681 79.2219 118.731 77.6681 122.845 78.6892C123.006 77.8457 122.603 76.6915 124.136 76.6027C127.12 76.8246 126.475 78.9999 130.427 78.6892C133.492 77.8013 148.979 75.5816 148.092 78.6892C149.302 77.9789 150.592 77.2686 151.883 76.6027C152.609 78.0676 155.512 78.8667 153.173 80.0653C161.804 76.9578 180.598 82.063 182.211 79.355C182.695 81.3971 189.632 79.8877 191.083 81.4415C154.383 80.8644 128.33 80.5537 98.8084 80.0653C103.003 81.8411 106.471 81.5303 112.682 82.8621C115.021 82.6845 111.956 81.7079 113.972 81.4859C127.362 83.6168 137.767 80.3761 150.673 83.5724C150.108 81.2195 162.207 81.0864 156.964 83.5724C161.885 83.9719 164.304 82.9953 167.047 82.1962C166.724 85.9696 180.114 80.8644 182.211 84.2827C169.628 84.4603 151.479 84.0163 143.01 84.2827C163.659 88.8108 187.938 81.2196 202.456 86.3692C179.791 87.2571 150.673 87.6566 127.846 84.993C128.814 84.8154 130.346 84.993 130.346 84.2827C114.053 87.4346 100.18 84.771 86.0642 85.6589C87.0321 85.7921 87.516 86.236 87.3547 87.0351C80.9826 86.4579 68.6416 88.2337 62.1082 89.8319C65.4959 90.631 69.5289 88.5001 69.6902 89.8319C67.3511 90.8529 63.1567 90.8529 62.1082 92.6287C85.4189 90.0982 113.65 91.5188 136.719 92.6287C132.524 92.4067 131.96 94.1824 129.137 94.7152C138.896 91.2969 142.042 93.6497 149.382 92.6287C147.204 92.3623 146.156 93.6497 145.591 92.6287C151.479 91.4744 166.24 91.4744 172.128 92.6287C155.432 94.138 138.332 94.0936 126.636 96.8016C139.138 97.6451 152.528 95.2923 160.755 96.0913C161.965 97.3787 153.496 96.5353 158.255 97.4675C162.127 95.2035 170.434 94.8039 175.919 96.7572C171.402 97.5119 160.675 94.8927 162.046 98.8437C167.369 96.846 177.129 99.0657 181.001 98.8437C169.789 100.975 161.643 98.2666 154.464 100.93C164.788 100.797 175.032 100.131 183.501 103.017C177.936 103.239 174.064 103.017 174.629 101.641C167.208 105.636 155.432 102.528 146.801 104.437C150.915 105.148 169.87 104.26 161.965 106.524C176.484 106.08 192.858 105.192 202.456 107.9C172.29 106.657 130.83 107.989 88.6453 105.103C90.3391 105.813 99.5344 105.236 97.5179 104.393C91.8717 104.304 79.45 104.171 81.0632 105.769C83.8863 105.458 87.9193 104.171 88.6453 106.479C81.8698 107.323 76.2237 104.57 73.4812 107.19C76.9496 107.634 83.483 106.302 84.8543 107.856C80.9019 107.811 77.8368 108.166 75.9817 109.232C85.5802 106.391 122.038 108.921 132.847 109.232C132.847 109.232 146.882 107.545 146.801 109.232C146.801 109.454 132.605 108.699 140.51 109.942C157.852 108.877 180.275 108.832 196.165 110.652C190.68 111.096 181.888 109.764 178.5 111.363C185.84 111.718 191.89 111.585 201.247 112.073C200.924 116.601 217.217 113.893 223.993 116.246C209.393 117.001 181.162 118.288 164.546 116.956C167.611 116.068 178.581 116.024 183.501 116.956C190.115 116.068 194.39 115.447 194.874 115.58C184.792 113.582 152.931 116.69 146.801 116.29C146.478 115.758 146.801 114.914 145.511 114.914C143.091 116.29 141.074 116.113 137.928 115.624C141.8 119.664 160.594 115.047 166.966 119.087C163.982 119.531 157.771 118.199 156.884 119.797C183.179 121.085 198.262 120.108 220.121 123.26C213.749 123.704 204.15 122.328 199.875 123.97C204.796 125.169 222.057 123.837 230.203 125.347H220.121C220.04 129.475 240.77 125.435 244.158 128.143C236.576 128.587 225.606 127.211 220.121 128.854C221.734 130.097 234.64 132.583 228.994 129.564C284.246 130.585 329.254 128.72 369.342 132.361C368.374 132.538 366.841 132.361 366.841 133.071C387.41 132.938 416.609 132.716 433.87 134.447C427.336 134.802 411.366 133.648 411.124 135.113C419.593 134.669 431.369 136.045 437.661 134.447C448.953 132.671 476.297 131.784 497.107 133.071C481.54 133.515 472.103 133.648 450.324 133.781C448.953 133.781 447.098 134.092 449.034 134.492C454.115 134.935 462.504 133.559 465.489 135.157C446.211 136.534 462.585 134.847 470.57 134.492C480.491 134.003 492.59 134.847 498.398 134.492C501.382 130.674 509.529 136.267 513.562 133.781C511.707 133.648 508.884 134.048 508.48 133.071C518.321 132.05 520.418 135.291 529.936 134.447C531.549 132.716 529.291 132.272 531.226 131.65C551.472 131.428 574.863 131.295 595.674 131.65C577.767 133.737 544.455 130.629 532.436 133.737C535.663 136.622 537.599 132.982 542.519 133.027C559.377 134.492 569.943 134.714 589.302 133.737C587.446 133.604 584.623 134.003 584.22 133.027C602.046 135.912 617.936 130.452 642.376 133.737C637.052 134.092 622.453 132.982 623.421 134.447H634.794C662.46 135.202 696.902 136.045 721.987 136.534C719.89 136.001 716.502 137.91 719.487 137.91C722.229 136.667 726.665 137.422 725.778 135.823C727.714 137.288 733.28 136.09 728.279 137.91C735.296 137.777 736.425 137.732 737.151 135.823C742.071 137.111 753.525 136.711 758.607 135.823C761.672 135.379 767.802 136.711 768.689 135.113C727.956 134.98 688.755 134.492 653.668 133.737C684.4 132.006 720.777 134.225 740.862 132.361H749.734C754.332 132.849 754.332 131.162 749.734 131.65H740.862C707.468 131.384 678.915 132.583 651.087 130.94C658.185 128.587 672.22 130.052 681.415 128.854C685.609 127.921 665.928 128.765 662.46 127.477C672.543 126.59 683.996 128.632 688.997 128.188C687.465 128.099 685.368 128.321 685.206 127.477C708.517 127.078 751.912 125.347 782.563 128.188C784.499 125.036 774.335 128.543 776.271 125.391C799.985 126.279 811.762 122.106 829.346 118.421C810.39 116.157 783.531 121.351 773.69 115.624C781.918 114.337 793.936 115.18 802.808 114.248C804.986 113.582 805.39 111.94 807.89 111.451C816.601 109.365 826.2 108.832 816.763 109.365C813.778 109.542 809.584 110.741 804.099 109.365C809.342 108.077 817.085 108.122 821.763 106.568C817.892 106.169 815.149 105.103 811.681 104.482C821.038 104.082 833.862 105.592 839.509 103.105C840.477 100.708 837.654 100.442 838.218 98.2222C834.346 97.9558 831.765 100.042 830.636 97.5119C833.862 97.4231 836.686 97.1124 838.218 96.1357C831.12 94.6707 813.052 96.4021 802.808 94.7595C806.68 95.2478 807.406 94.0492 810.39 94.0492C827.006 93.4277 806.599 93.8273 802.808 92.673C817.811 91.43 830.233 95.4254 842.009 91.2969C836.524 91.0749 828.781 92.0959 826.845 89.9207C830.959 90.3202 832.733 89.4323 835.718 89.2104C837.815 89.1216 847.171 89.6099 843.3 88.5001C836.363 87.9229 819.666 90.4978 829.426 87.1239C823.941 87.1239 817.973 87.3902 815.553 85.7477C821.441 85.0374 824.425 84.771 825.635 84.3715C819.586 86.4136 820.876 80.82 833.217 82.9953C838.702 82.9953 833.459 81.7967 830.717 82.285C821.36 81.264 817.489 84.9486 811.762 82.285C813.456 81.5747 816.44 81.6191 816.843 80.1985C814.504 79.5326 812.649 82.285 811.762 80.1985C814.262 80.4205 814.262 79.2663 815.553 78.8223C822.732 78.3784 833.217 79.7546 838.299 78.112C836.766 78.0232 834.75 78.2452 834.508 77.4017C835.96 77.3129 838.057 77.5349 838.299 76.6914C831.685 77.7124 822.409 77.4461 818.053 75.3152C827.813 75.3152 837.008 75.0489 844.59 73.939C838.783 73.0068 821.763 75.182 814.262 73.2287C827.813 71.9413 845.074 69.4997 855.963 69.0557C854.673 69.0557 854.35 67.8127 855.963 67.6796C859.432 68.4786 864.029 68.1236 867.336 66.9693C861.529 66.0371 846.768 68.8338 853.463 66.259C844.994 64.9272 840.719 64.2613 830.717 64.8828C832.33 63.6842 833.298 62.1304 837.008 62.086C834.508 63.4178 854.995 64.2169 861.045 62.7963C851.124 61.8197 832.088 62.1748 821.844 59.3337C843.622 60.6211 862.416 58.0462 880 55.1607C876.854 54.5836 874.999 53.2961 872.418 52.3639C875.806 51.6536 879.597 51.2097 880 48.9012C872.257 46.9035 859.351 47.747 850.962 46.1044C855.076 46.5039 857.335 45.8824 858.544 44.7282C859.674 42.5086 855.237 43.2633 854.753 41.9315C860.884 43.1745 863.384 41.4432 867.417 39.845C864.997 38.8683 863.545 37.359 859.835 37.0482C846.042 41.4875 822.167 34.3846 804.18 34.2514C830.233 32.8308 856.125 33.7631 873.709 30.7887C871.934 27.2816 850.72 26.6157 845.881 27.326C846.849 27.5036 848.381 27.3261 848.381 28.0364C838.944 29.6345 828.458 30.9219 819.344 29.4125C820.312 28.3027 825.555 29.5901 824.425 27.326C820.554 26.8821 813.536 28.2139 811.762 26.6157C816.279 26.2606 819.102 25.4615 823.135 26.6157C823.941 24.2629 831.685 25.7279 834.508 24.5292C837.25 25.0176 842.574 23.819 837.008 23.819C828.216 23.7746 819.505 23.7302 816.763 20.3563C814.423 19.6904 812.568 22.4428 811.681 20.3563C811.681 19.4241 813.94 19.6904 814.181 18.9801C796.356 17.959 763.769 17.2044 749.734 14.0968C751.589 13.6973 756.268 14.8959 756.026 13.3865C745.621 13.3865 742.636 17.2931 733.28 14.7627C736.667 15.1623 743.846 14.1856 740.862 13.3865C734.409 15.2511 727.795 14.23 724.407 14.0968C698.918 13.1202 668.51 14.2744 639.714 12.7207C655.281 12.0992 673.914 13.6085 683.996 12.0104C682.141 11.8772 679.318 12.2767 678.915 11.3C692.304 12.8982 695.289 10.4566 713.034 10.5897C713.437 12.1879 709.404 11.3444 709.243 12.6762C717.148 13.0758 713.437 10.2346 716.825 9.21355C698.273 9.92385 686.497 9.87946 673.833 11.3C673.349 10.3234 672.301 10.1458 673.833 9.21355C650.119 12.1435 615.677 8.23688 598.013 8.50324C598.981 8.68082 600.513 8.50326 600.513 9.21355C572.928 8.45887 548.972 7.48223 529.694 9.92386V7.83737C527.355 9.25796 518.079 8.9472 513.239 7.83737C518.966 5.97285 531.71 8.05933 533.485 5.75088V5.70651ZM202.214 84.3271C206.086 86.6355 220.686 82.9509 222.46 86.4136C213.507 84.6378 206.086 88.4556 202.214 84.3271ZM80.9019 65.5487C81.1439 63.8174 78.9661 63.3734 77.1109 62.7519C84.0477 60.1771 89.5325 63.7286 94.7754 62.0417C95.0174 64.4833 85.5802 63.3734 80.9019 65.5487ZM99.857 33.5411C95.824 32.52 99.2117 31.9429 93.5655 33.5411C96.3886 31.0551 92.6783 33.4523 88.484 32.8308C88.8873 33.7631 91.6297 33.4079 93.5655 33.5411C94.9368 36.1159 89.2906 34.9173 88.484 36.3379C86.9514 35.5388 86.2255 34.3402 82.1925 34.9617C81.9505 34.3846 82.6765 34.2958 83.483 34.2514C83.2411 33.4523 81.1439 33.6743 79.692 33.5411C85.9835 32.964 92.7589 31.8097 99.9377 30.0784C104.293 30.5667 100.744 32.1649 99.9377 33.5411H99.857ZM556.231 13.3422C558.005 11.744 565.023 13.0758 568.895 12.6319C567.12 14.23 560.103 12.8982 556.231 13.3422ZM279.406 16.8492C274.244 19.6904 265.613 16.6273 254.159 17.5595C255.208 16.0501 272.147 17.2488 279.406 16.8492ZM30.3281 24.4849C36.2163 24.3961 28.1503 29.1906 25.2466 26.5714C24.8433 24.7068 32.3446 27.2373 30.3281 24.4849ZM131.476 27.9475C128.572 28.7022 127.039 30.1228 122.603 30.034C122.603 29.3681 124.136 29.5013 125.104 29.3237C123.168 26.305 107.197 28.7466 116.231 27.2372C120.587 26.5269 125.507 26.305 131.395 27.9475H131.476ZM141.558 27.2817C142.849 25.3284 146.962 27.4592 149.14 27.2817C147.204 29.235 143.655 28.5247 141.558 27.2817ZM78.3208 32.1205C76.7883 34.7397 69.4482 34.1626 63.1567 34.207C65.8992 32.2537 74.1265 33.2748 78.3208 32.1205ZM60.6563 34.9173C61.2209 33.7631 55.978 34.9617 55.5747 35.6276C51.2997 33.8962 58.5591 32.6977 61.8662 32.8308C62.4308 34.2958 60.9789 34.6509 60.5756 35.6276C59.1237 35.4944 59.8497 34.9173 60.5756 34.9173H60.6563ZM102.357 55.1162C105.745 56.3593 94.9368 55.6046 92.275 55.8266C93.2429 57.3803 99.3731 56.0929 102.357 56.5369C104.051 57.9575 90.4198 56.892 85.9028 57.2472C87.5967 54.4504 95.824 55.2495 102.357 55.1607V55.1162ZM149.14 63.4622C151.318 62.308 162.126 62.308 164.304 63.4622C157.69 63.0183 152.851 64.3057 149.14 63.4622ZM144.059 67.6352C147.124 66.2146 157.368 66.7917 157.932 69.0114C154.061 68.1235 148.979 67.946 144.059 67.6352ZM84.6929 69.0114C80.3373 70.1212 73.8038 69.988 68.2383 70.3876C70.1741 68.2123 82.1118 68.6562 84.6929 69.0114ZM149.14 71.0979C159.384 69.2334 169.225 70.8759 158.013 71.0979C153.415 71.1867 146.156 71.6306 149.14 71.0979ZM807.809 71.8082C806.68 73.7615 802.728 74.1166 798.937 74.6049C799.663 72.474 805.148 72.918 807.809 71.8082ZM117.522 76.6027C121.393 77.091 119.941 72.9624 123.813 72.4741C125.991 75.8036 115.747 79.1331 117.522 76.6027ZM106.148 75.8924C88.5646 74.6493 100.906 78.7779 106.148 75.8924V75.8924ZM125.104 73.1844C131.072 71.9414 149.544 72.1189 142.768 73.1844C140.268 73.5839 132.282 74.7381 125.104 73.1844ZM207.296 91.2969C193.261 89.0772 165.837 92.4067 160.513 89.2104C156.561 91.3412 152.447 89.5655 147.85 90.5865C132.928 90.9861 133.008 89.5211 150.35 89.8762C134.621 87.701 110.262 96.7572 93.7269 96.0913C150.995 92.4511 195.842 99.2876 239.076 95.381C238.27 99.5096 261.661 87.3458 265.371 91.2524C261.58 92.451 255.127 90.3202 250.207 91.2524C243.674 92.4954 253.03 92.4954 247.707 91.2524C240.609 89.6099 224.396 92.4511 217.379 92.6287C202.053 93.117 190.599 92.7175 179.468 92.6287C188.664 89.5655 198.746 92.5398 207.296 91.2524V91.2969ZM94.7754 89.8762C91.3877 91.4744 82.5958 90.1426 77.1109 90.5865C77.7562 89.4323 89.4519 89.1215 94.7754 89.8762ZM194.632 101.019C197.698 100.708 197.375 102.306 200.924 101.729C199.472 104.393 189.874 102.573 184.469 103.105C184.631 99.5984 196.084 103.905 194.552 101.019H194.632ZM321.107 7.08269C316.429 6.63876 308.524 7.97054 305.943 6.37238C293.522 7.43782 277.874 7.48221 299.652 7.74857C305.217 8.8584 326.995 8.41452 321.107 7.03832V7.08269ZM63.1567 16.8492C69.5289 14.4964 89.2099 16.5828 93.4849 14.0524C85.9835 14.23 77.5142 14.4964 75.8203 12.6762C71.4647 14.8071 64.6893 13.6529 63.1567 16.8492ZM44.2016 16.1389C53.9615 15.4286 59.8497 16.9824 63.1567 14.7627C56.6233 14.2744 37.9908 16.4053 44.2016 16.1389ZM113.731 23.1087C114.537 20.6671 121.313 23.5526 123.813 21.0222H113.731C114.214 22.2208 111.875 22.7979 113.731 23.1087ZM17.6645 32.8308C14.8414 32.4313 19.1971 31.7654 16.374 30.7443C13.5509 31.9874 8.54996 31.9874 8.79193 34.9173C12.6636 34.9173 13.7122 33.4523 16.374 32.8308C16.374 33.2304 17.4226 33.6299 17.6645 32.8308ZM125.104 35.6276C115.424 33.2303 112.037 34.2514 107.439 37.0038C111.149 36.3823 111.311 36.3823 115.021 37.0038C116.312 33.0084 122.845 37.2257 125.104 35.6276ZM867.256 44.6839C867.659 43.0413 871.208 43.1301 872.337 41.8871C863.223 40.5109 864.755 42.6862 867.256 44.6839ZM6.29148 52.3195C6.53346 51.5204 7.6627 51.2541 8.79193 50.9433C8.79193 51.6536 9.84051 51.7868 10.0825 52.3195C5.6462 52.8966 2.74244 54.3172 0 55.7822C6.29148 55.7378 14.6801 53.2518 13.8735 51.6092C12.5023 53.2074 9.11458 50.0998 7.58204 49.5227C10.2438 49.8779 10.2438 46.8147 8.8726 48.8124C7.01742 49.0344 3.46837 51.7424 6.37213 52.2751L6.29148 52.3195ZM20.165 56.4925C15.4867 57.1584 12.9056 58.9785 8.79193 59.9552C10.6471 60.0883 13.4702 59.6888 13.8735 60.6654C-4.59762 62.086 10.9697 59.4668 13.8735 61.3757C14.6801 61.9084 5.32355 65.9926 11.3731 63.4622C13.7928 63.1515 13.6315 61.4645 17.6645 62.086C15.3254 63.329 17.9872 64.2613 20.165 64.8828C19.7617 61.1982 29.9248 65.4155 30.2475 63.5066C25.7305 63.4178 19.923 60.7542 18.8744 62.7963C19.923 60.5767 16.8579 60.6211 16.374 59.3337C18.2292 60.3991 22.9881 59.9995 22.6654 57.9574C21.2136 57.8242 20.7296 57.2027 20.165 56.5812V56.4925ZM40.4106 60.6654C42.6691 61.065 45.6535 61.0206 46.7021 62.0417C42.2658 62.8407 39.5234 59.1117 36.6196 61.3314C38.0715 61.4645 38.5555 62.086 39.1201 62.7075H34.0385C37.1036 60.5323 29.7635 59.9995 28.9569 61.9972C32.1027 62.308 34.7644 64.3945 32.7479 65.5043C37.1036 65.3712 36.539 63.1959 39.0394 65.5043C38.4748 63.6842 42.8304 64.1281 44.121 64.794C43.395 64.794 42.6691 65.3712 44.121 65.5043C44.6049 64.6165 45.7342 64.0838 47.912 64.1282V60.6654C46.3795 60.5766 44.363 60.7986 44.121 59.9552C44.8469 59.9552 45.5729 59.378 44.121 59.2449C44.121 60.3991 40.572 59.6444 40.33 60.621L40.4106 60.6654ZM55.5747 67.6352C54.9294 68.5231 50.8158 70.9647 53.0742 71.1422C53.7195 69.8992 54.4455 71.453 55.5747 71.8526C52.8323 67.0581 60.7369 68.1679 64.4473 66.9693C59.8497 67.2801 51.6224 64.5721 45.4922 66.259C49.8478 67.724 53.2356 65.4155 55.5747 67.6352ZM30.3281 80.82C30.8121 78.7779 37.7489 80.2873 39.2007 78.7335C35.571 77.091 28.0697 79.577 30.3281 80.82ZM69.5289 100.309C67.351 100.264 65.5765 100.442 64.4473 101.019C46.5408 101.019 73.4006 103.505 72.0293 98.9325C68.4803 96.5797 61.3015 100.531 58.1558 98.2222C67.7543 96.5797 81.0632 96.8904 87.1934 93.3389C75.8204 95.6917 53.9615 95.9137 49.2832 99.5984C52.0257 99.554 65.5765 98.4886 69.5289 100.309ZM93.4849 94.0492C98.5665 93.6053 106.955 94.9371 109.94 93.3389H92.275C91.9523 94.6263 90.1778 92.9394 89.7745 94.0492C91.549 94.3156 91.8717 94.8927 93.5655 94.0492H93.4849ZM92.275 99.6428C87.2741 100.708 83.483 97.6007 82.1925 98.9325C88.5646 101.285 105.261 99.8204 108.73 98.9325C99.2117 98.2222 91.1457 97.8671 88.484 98.2222C90.0165 98.5773 91.3877 98.9769 92.275 99.5984V99.6428ZM69.5289 108.655C68.7223 107.545 55.6554 107.456 60.6563 109.365C62.4308 108.122 68.8836 110.12 69.5289 108.655ZM260.37 134.403C253.434 132.583 241.335 135.202 240.125 135.069C245.206 135.379 257.547 137.244 260.37 134.403ZM671.252 138.576C678.511 136.711 683.19 140.573 688.917 137.2C679.076 137.865 669.8 135.468 666.17 137.2C668.026 137.333 670.849 136.933 671.252 137.91C670.526 137.91 669.8 138.487 671.252 138.62V138.576ZM309.734 3.62002C304.169 4.01956 300.862 3.62003 298.361 4.33033C303.12 6.15045 310.057 5.04056 314.816 2.95408C314.977 1.79985 306.992 1.79985 307.234 2.95408C308.202 3.13165 309.734 2.95409 309.734 3.66439V3.62002Z" fill="#F5C201"/>
</svg>
