<svg width="230" height="230" viewBox="0 0 230 230" fill="none" xmlns="http://www.w3.org/2000/svg">
<g clip-path="url(#clip0_138_384)">
<path d="M222.992 0.338908C221.842 1.03648 221.465 1.29558 221.321 1.53475C221.249 1.67426 221.106 1.79385 220.998 1.79385C220.746 1.79385 219.111 3.24879 218.59 3.94636C218.356 4.26525 218.051 4.96283 217.943 5.50095C217.835 6.03908 217.692 6.61707 217.638 6.77652C217.368 7.71326 217.781 9.58674 218.392 10.1448C218.554 10.3042 218.68 10.5235 218.68 10.6431C218.68 10.942 219.435 11.7592 219.704 11.7592C219.812 11.7592 220.153 11.9585 220.495 12.2176C220.836 12.4767 221.681 12.7956 222.399 12.9351C223.118 13.0746 223.747 13.2739 223.819 13.3736C223.999 13.6925 224.448 13.5729 225.274 12.955C225.706 12.6162 226.155 12.3571 226.281 12.3571C226.406 12.3571 226.784 12.1578 227.125 11.9186C227.467 11.6795 227.916 11.3805 228.096 11.2609C228.545 11.0018 229.228 9.64653 229.353 8.74965C229.407 8.35104 229.587 7.91257 229.731 7.77305C230.18 7.37444 230.036 6.73666 229.281 5.68033C228.904 5.12227 228.437 4.40477 228.275 4.08588C227.682 2.8701 226.514 1.3753 225.706 0.757453C224.663 -0.0198441 223.819 -0.139428 222.992 0.338908Z" fill="#EFC731"/>
<path d="M48.228 15.0876L47.8687 15.6057L48.4616 16.8813C48.7851 17.5988 49.1265 18.5156 49.2522 18.9142C49.3601 19.3129 49.5577 19.8111 49.6655 20.0304C49.7913 20.2496 49.989 20.8077 50.1327 21.2661C50.4382 22.3622 50.9952 22.9203 51.9116 23.0598C52.5585 23.1595 52.6483 23.1196 52.6483 22.7808C52.6483 22.3822 52.3968 21.4255 52.1093 20.6283C50.528 16.383 49.5577 14.5295 48.9108 14.5694C48.7312 14.5694 48.4437 14.8085 48.228 15.0876Z" fill="#EFC731"/>
<path d="M142.025 35.8355C141.342 36.0946 140.695 36.8121 140.695 37.3303C140.695 37.6093 140.624 37.9083 140.516 37.9681C140.282 38.1275 140.282 39.4031 140.516 39.5625C140.606 39.6223 140.767 40.0409 140.875 40.4793C141.145 41.5357 142.133 42.7315 142.995 43.0105C143.391 43.15 144.145 43.2497 144.685 43.2497C145.475 43.2497 145.745 43.17 146.032 42.7913C146.751 41.9542 146.985 40.9377 146.985 38.7653V36.7124L146.05 36.4733C145.529 36.3537 144.846 36.1145 144.523 35.9551C143.948 35.676 142.69 35.6162 142.025 35.8355Z" fill="#EFC731"/>
<path d="M201.322 44.7445C199.795 45.0633 199.453 45.2627 198.483 46.4186C197.908 47.0963 197.71 47.4949 197.602 48.2722C197.53 48.8103 197.369 49.4481 197.261 49.6873C197.135 49.9264 197.027 50.2055 197.009 50.325C197.009 50.4247 196.92 50.7436 196.812 51.0226C196.704 51.3017 196.56 52.059 196.488 52.7167C196.416 53.3744 196.309 53.9923 196.219 54.1119C196.039 54.371 195.608 57.2011 195.734 57.3406C195.787 57.4004 196.111 57.2011 196.452 56.9221C196.794 56.6431 197.153 56.4039 197.261 56.4039C197.369 56.4039 197.728 56.2245 198.052 56.0252C198.375 55.8259 198.968 55.5867 199.363 55.507C199.759 55.4273 200.172 55.3077 200.262 55.2081C200.37 55.1283 201.178 54.9689 202.095 54.8493C203.298 54.6899 203.927 54.5105 204.448 54.1318C205.275 53.5538 206.281 52.2783 206.281 51.78C206.281 51.6006 206.371 51.3814 206.461 51.3216C206.569 51.2618 206.641 50.9429 206.641 50.624C206.641 50.3051 206.73 49.9862 206.82 49.9264C207.072 49.7471 207.036 46.2193 206.784 45.6015C206.623 45.2427 206.335 45.0434 205.742 44.864C204.395 44.5053 202.67 44.4455 201.322 44.7445Z" fill="#EFC731"/>
<path d="M164.109 52.0391C163.677 52.5174 163.336 52.9758 163.336 53.0755C163.336 53.1751 163.084 53.6136 162.779 54.0321C162.33 54.6699 162.204 55.0685 162.132 56.0651C162.06 57.0815 162.096 57.3606 162.348 57.5997C162.635 57.8588 162.725 57.819 163.264 57.1015C163.606 56.663 163.875 56.2046 163.875 56.085C163.875 55.9455 164.127 55.3276 164.414 54.6898C164.881 53.7132 164.953 53.3545 164.917 52.358L164.863 51.182L164.109 52.0391Z" fill="#EFC731"/>
<path d="M174.692 73.6439C174.081 74.1422 173.524 74.5408 173.47 74.5408C173.416 74.5408 172.805 74.9793 172.123 75.5373C171.44 76.0755 170.847 76.5339 170.793 76.5339C170.739 76.5339 170.254 76.8926 169.715 77.3311C169.176 77.7696 168.691 78.1283 168.619 78.1283C168.565 78.1283 167.954 78.5668 167.271 79.1249C166.588 79.663 165.995 80.1214 165.941 80.1214C165.905 80.1214 164.881 80.8588 163.695 81.7557C162.509 82.6725 161.395 83.4897 161.216 83.6093C161.036 83.7089 160.335 84.2271 159.616 84.7453C158.215 85.8016 157.262 85.981 156.256 85.403C155.969 85.2436 155.412 85.0443 154.998 84.9845C154.603 84.9048 154.118 84.7652 153.938 84.6656C153.687 84.5261 153.327 84.7254 152.285 85.6422C151.548 86.28 150.955 86.8978 150.937 87.0174C150.937 87.137 150.74 87.5755 150.488 87.9741C150.237 88.3727 150.039 88.8311 150.039 88.9905C150.039 89.1301 149.823 89.5486 149.554 89.8874L149.069 90.5252L147.182 90.3857C145.098 90.2462 144.415 89.9472 142.42 88.293C141.863 87.8545 141.378 87.4958 141.324 87.4958C141.288 87.4958 140.731 87.0373 140.12 86.4992C139.509 85.9412 138.916 85.5027 138.809 85.5027C138.701 85.5027 138.198 85.0443 137.676 84.4663C136.94 83.6691 136.742 83.3103 136.742 82.812C136.742 82.4732 136.688 82.1145 136.616 82.0347C136.473 81.8753 136.473 81.8354 136.149 78.786C135.862 75.9758 135.359 75.1985 134.316 76.0157C134.119 76.1552 133.634 76.3944 133.238 76.5339C132.843 76.6734 132.322 76.8926 132.07 77.0321C131.819 77.1717 131.334 77.4108 130.992 77.5304C130.651 77.6699 130.13 77.8892 129.824 78.0287C127.488 79.1647 126.823 79.364 126.105 79.2444C125.691 79.1647 125.26 79.0252 125.152 78.9256C125.062 78.8458 124.451 78.6067 123.805 78.4273C123.158 78.2479 122.565 78.0287 122.457 77.949C122.367 77.8692 121.882 77.6699 121.379 77.5304C120.894 77.3909 120.373 77.1916 120.265 77.072C120.139 76.9724 120.031 76.9524 120.031 77.0321C120.031 77.1119 119.923 77.0919 119.816 76.9724C119.69 76.8727 119.294 76.7132 118.953 76.6335C118.612 76.5538 118.091 76.3744 117.785 76.2349C117.498 76.0755 116.761 75.8164 116.168 75.6171C115.575 75.4377 115.018 75.2185 114.91 75.1387C114.82 75.059 114.335 74.8796 113.832 74.7401C113.347 74.6006 112.862 74.4212 112.754 74.3415C112.664 74.2618 112.017 74.0425 111.352 73.8432C110.687 73.6439 110.094 73.4048 110.041 73.3051C109.861 73.0061 109.214 73.1457 108.747 73.5841C108.495 73.8432 107.759 74.5807 107.112 75.2384C105.638 76.7531 104.955 77.2713 103.59 78.0287C102.619 78.5668 102.35 78.6266 100.894 78.6067C100.014 78.6067 98.9179 78.5668 98.4687 78.5269C97.2288 78.4472 96.7796 78.6665 95.5398 80.0417C94.4796 81.2375 94.3359 81.3172 93.5991 81.3172C92.8624 81.3172 92.7187 81.2176 91.5148 79.9221C90.814 79.1647 90.1491 78.3874 90.0413 78.1881C89.8796 77.8692 89.8257 77.8692 89.664 78.1283C89.3046 78.7063 89.071 80.0417 89.107 81.3571C89.1249 82.0945 89.0531 82.7522 88.9452 82.812C88.8554 82.8718 88.7656 83.1309 88.7656 83.39C88.7656 83.6292 88.5679 84.0477 88.3343 84.2869C87.957 84.6855 87.6335 84.7652 86.3038 84.845C85.4413 84.8848 84.5968 84.9845 84.453 85.0443C83.932 85.2236 81.3624 85.1439 81.1648 84.9247C81.057 84.8051 80.8593 84.7055 80.7335 84.7055C80.6077 84.7055 80.2663 84.4065 79.9788 84.0477C79.314 83.2505 77.9843 81.0781 77.9843 80.819C77.9843 80.5798 76.5468 79.5035 75.6124 79.0252C75.253 78.8458 74.7679 78.7262 74.5343 78.7661C74.1749 78.8259 74.1031 78.9853 73.9593 80.1812C73.8335 81.377 73.8515 81.6561 74.1749 82.3736C74.3726 82.832 74.5882 83.4299 74.6601 83.7089C74.8577 84.4464 75.4148 85.8814 75.9359 86.9775C76.3312 87.7748 76.403 88.1136 76.3132 88.9308C76.2413 89.4888 76.0976 90.0469 75.9898 90.2063C75.882 90.3658 75.846 90.4854 75.9179 90.4854C75.9898 90.4854 75.9718 90.6049 75.882 90.7245C75.7741 90.864 75.5945 91.4221 75.4687 91.9801C75.3249 92.5183 75.1093 93.1959 74.9835 93.475C74.8577 93.754 74.7499 94.1127 74.732 94.2722C74.732 94.4316 74.2468 95.5477 73.6718 96.7635C73.0968 97.9594 72.414 99.4143 72.1445 99.9923C71.839 100.69 70.9945 101.766 69.521 103.321C67.2929 105.712 66.5921 106.251 65.1546 106.649C64.7054 106.769 64.2741 106.948 64.2202 107.048C64.1663 107.147 63.8249 107.227 63.4476 107.227C62.8906 107.227 62.657 107.068 61.9921 106.33C61.5609 105.832 61.1296 105.433 61.0398 105.433C60.9679 105.433 59.2788 103.819 57.3202 101.846C55.3616 99.8727 53.6546 98.2583 53.5288 98.2583C53.2773 98.2583 53.4929 105.394 53.7624 105.772C53.8523 105.912 53.8882 106.091 53.8343 106.211C53.7265 106.41 55.5234 108.224 55.8288 108.224C55.9187 108.224 56.1882 108.443 56.4218 108.722C56.6554 109.001 56.9788 109.22 57.1585 109.22C57.5179 109.22 59.1171 111.173 59.1171 111.612C59.1171 111.791 59.0093 112.11 58.8656 112.329C58.4163 113.027 58.3265 114.462 58.6679 115.319C59.2968 116.913 59.4226 117.093 60.2312 117.312C60.896 117.491 61.0577 117.651 61.3991 118.388C61.7585 119.166 61.8124 119.564 61.8124 121.677C61.8124 124.188 61.5609 125.523 60.9499 126.52C60.7702 126.819 60.5726 127.198 60.5187 127.357C60.2491 128.114 59.2429 129.35 58.632 129.649C58.2546 129.829 57.7335 130.108 57.464 130.267C57.2124 130.426 56.889 130.546 56.7812 130.546C56.4937 130.546 56.1523 131.024 55.6851 132.081L55.3077 132.938L56.332 134.213C56.889 134.931 57.5179 135.569 57.7335 135.648C57.9491 135.708 58.2546 135.887 58.3984 136.027C58.5421 136.166 58.9734 136.386 59.3327 136.505C60.5726 136.944 61.8304 138.977 61.7945 140.491C61.7585 142.484 60.5007 143.282 56.5835 143.78C55.0023 143.979 53.7085 144.238 53.5468 144.398C53.4031 144.537 53.1156 144.717 52.9179 144.777C52.4148 144.956 51.7859 146.57 51.6421 148.045C51.5702 148.723 51.4445 149.341 51.3726 149.4C51.157 149.54 51.1749 150.816 51.3726 150.975C51.4624 151.035 51.6062 151.653 51.6601 152.37C51.8398 154.224 52.8999 155.858 53.9062 155.858C54.1757 155.858 54.4452 155.918 54.5171 155.997C54.7327 156.237 57.7156 156.855 58.6859 156.855C59.207 156.855 59.7281 156.735 59.9437 156.556C60.1234 156.396 60.6265 156.257 61.0398 156.257C61.4531 156.257 61.8484 156.157 61.9023 156.057C62.0281 155.818 63.4835 155.778 63.6812 155.997C63.7531 156.097 64.2023 156.257 64.6515 156.356L65.496 156.556L65.7656 158.19C65.9093 159.087 66.089 159.884 66.1788 159.964C66.4124 160.223 66.3226 165.524 66.089 165.783C65.9632 165.923 65.9452 166.023 66.0171 166.023C66.107 166.023 66.089 166.142 65.9991 166.262C65.8913 166.401 65.7116 167.139 65.5859 167.916C65.4601 168.673 65.2984 169.391 65.2265 169.51C65.1546 169.61 64.9929 170.208 64.8671 170.806C64.7413 171.404 64.5257 172.062 64.3999 172.281C64.2202 172.58 64.2382 172.779 64.5437 173.437C64.8851 174.154 66.3226 175.589 66.6999 175.589C67.2031 175.589 67.9038 176.426 68.0116 177.184C68.1195 177.842 68.0476 178.081 67.6702 178.639C66.8437 179.835 67.1312 181.17 68.4249 182.186C69.1976 182.804 69.3952 182.864 70.7968 182.924C72.2523 182.984 72.3601 182.944 73.2765 182.326C73.8155 181.967 74.4624 181.529 74.732 181.349C75.0195 181.19 75.6663 180.712 76.1695 180.293C76.6905 179.894 77.2835 179.476 77.4991 179.376C77.7148 179.296 78.164 178.978 78.5054 178.699C78.8468 178.42 79.2421 178.18 79.3499 178.18C79.6554 178.18 80.464 178.798 82.0991 180.273C82.8179 180.931 83.5546 181.549 83.6984 181.668C83.8601 181.768 84.9023 182.705 86.0163 183.701C87.1304 184.718 88.0827 185.555 88.1546 185.555C88.2085 185.555 88.8913 186.133 89.664 186.85C90.4366 187.568 91.1195 188.146 91.1734 188.146C91.2452 188.146 92.2156 189.003 93.3476 190.039C94.4796 191.075 95.4499 191.933 95.5038 191.933C95.5577 191.933 96.2945 192.55 97.121 193.328C97.9476 194.085 98.7023 194.723 98.7921 194.723C98.882 194.723 99.0976 194.902 99.2773 195.121C99.6366 195.58 100.769 195.679 101.128 195.281C101.254 195.141 101.344 195.121 101.344 195.201C101.344 195.301 101.451 195.261 101.595 195.141C101.721 195.022 102.512 194.822 103.338 194.703C104.165 194.583 105.009 194.404 105.207 194.324C107.148 193.387 117.623 193.487 119.276 194.444C119.546 194.603 119.869 194.723 119.995 194.723C120.552 194.723 121.325 195.4 122.511 196.975C123.23 197.912 123.805 198.789 123.805 198.948C123.805 199.108 123.966 199.407 124.164 199.606C124.362 199.805 124.523 200.084 124.523 200.204C124.523 200.343 124.631 200.562 124.775 200.682C124.973 200.881 125.619 200.204 128.135 197.174C129.86 195.101 131.351 193.268 131.441 193.088C131.549 192.909 133.005 191.095 134.676 189.082L137.73 185.395L139.33 185.375C140.983 185.355 143.049 185.654 143.624 185.993C143.804 186.093 144.271 186.511 144.666 186.89C145.062 187.289 145.421 187.548 145.493 187.468C145.565 187.408 145.511 187.229 145.403 187.109C145.134 186.81 145.116 185.834 145.367 185.654C145.475 185.575 145.511 185.435 145.439 185.335C145.385 185.236 145.421 185.036 145.511 184.897C145.601 184.757 145.744 184.259 145.816 183.761C145.888 183.283 146.14 182.585 146.373 182.246C146.607 181.907 146.805 181.529 146.805 181.409C146.805 181.27 146.948 181.17 147.128 181.17C147.308 181.17 147.703 180.951 148.026 180.692C148.422 180.393 148.961 180.193 149.716 180.094C151.728 179.874 151.908 179.655 152.465 177.084C152.626 176.307 152.824 175.51 152.932 175.29C153.022 175.071 153.201 174.473 153.327 173.995C153.453 173.497 153.92 172.341 154.351 171.444C155.501 169.072 155.699 168.693 156.22 167.816C156.472 167.378 156.687 166.959 156.687 166.88C156.687 166.78 157.029 166.262 157.424 165.724C157.837 165.166 158.43 164.149 158.736 163.432C159.041 162.734 159.544 161.877 159.832 161.538C160.137 161.199 160.515 160.601 160.676 160.223C161.018 159.505 161.18 159.186 161.88 157.991C162.276 157.313 162.294 157.094 162.204 155.679C162.096 153.725 162.33 148.763 162.581 148.424C162.671 148.304 162.851 147.427 162.976 146.491C163.102 145.554 163.354 144.517 163.534 144.179C163.731 143.84 163.875 143.302 163.875 142.983C163.893 142.584 164.234 141.906 165.007 140.83C166.085 139.296 166.714 138.777 168.547 137.94C169.427 137.542 170.254 137.123 170.523 136.964C170.667 136.864 171.026 136.665 171.332 136.505C172.284 135.987 172.141 135.648 170.092 133.396C168.547 131.722 168.187 131.224 168.187 130.745C168.187 130.426 168.259 130.127 168.349 130.048C168.439 129.988 168.619 129.43 168.744 128.792C168.87 128.174 169.104 127.477 169.284 127.257C169.463 127.038 169.697 126.64 169.805 126.361C169.894 126.082 170.236 125.364 170.523 124.766C170.919 123.969 171.062 123.411 171.062 122.673V121.677L169.14 119.564C167.181 117.432 165.402 115.718 165.007 115.578C164.881 115.538 164.216 114.96 163.534 114.303C162.33 113.147 161.359 111.532 161.359 110.675C161.359 110.476 161.251 110.097 161.126 109.838C160.946 109.419 160.964 109.2 161.341 108.383C161.647 107.666 161.862 107.426 162.168 107.426C162.725 107.426 164.612 107.825 165.043 108.044C165.241 108.124 165.923 108.303 166.57 108.423C167.217 108.543 167.9 108.722 168.098 108.802C168.475 109.001 171.422 109.699 173.416 110.057C174.566 110.277 174.656 110.257 175.537 109.758C176.04 109.459 176.597 109.22 176.776 109.22C176.938 109.22 177.262 109.081 177.459 108.941C177.675 108.782 178.232 108.543 178.717 108.403C179.202 108.283 179.687 108.104 179.777 108.024C179.885 107.925 180.496 107.765 181.179 107.666C182.994 107.347 184.898 105.991 187.162 103.4C188.51 101.846 189.013 101.128 189.211 100.451C189.355 99.9524 189.606 99.2748 189.786 98.936C189.966 98.5971 190.163 97.8796 190.217 97.3415C190.289 96.8034 190.397 96.2652 190.469 96.1656C190.541 96.046 190.702 93.6942 190.846 90.9039L191.062 85.8415L190.091 84.8848C189.552 84.3467 189.049 83.9082 188.977 83.9082C188.887 83.9082 187.863 83.0113 186.695 81.9152C185.527 80.819 184.521 79.9221 184.449 79.9221C184.395 79.9221 183.587 79.2046 182.67 78.3276C181.736 77.4507 180.927 76.7332 180.855 76.7332C180.801 76.7332 179.777 75.8363 178.609 74.7401C177.441 73.6439 176.327 72.747 176.148 72.747C175.95 72.747 175.303 73.1457 174.692 73.6439Z" fill="#EFC731"/>
<path d="M37.968 80.8987C37.5907 81.2375 37.5907 81.3173 37.8242 82.1344C38.0399 82.9316 38.6688 84.3667 39.711 86.3996C39.9266 86.8381 40.3758 87.5755 40.7172 88.0339C41.0586 88.4923 41.3282 88.9308 41.3282 89.0304C41.3461 89.2297 42.6039 89.8875 42.9813 89.8875C43.3766 89.8875 43.8438 89.2297 43.8438 88.6318C43.8438 88.3528 43.9336 88.0538 44.0235 87.994C44.293 87.8147 44.2571 83.9082 43.9875 83.2505C43.8617 82.9516 43.5203 82.5928 43.2149 82.4533C42.9274 82.3337 42.2625 81.975 41.7414 81.676C41.2024 81.3771 40.5016 81.0781 40.1602 80.9984C39.8008 80.9386 39.4774 80.7991 39.4235 80.6994C39.2617 80.4004 38.3813 80.52 37.968 80.8987Z" fill="#EFC731"/>
<path d="M10.332 104.337C10.6375 104.616 10.9969 104.835 11.1586 104.835C11.3203 104.835 11.5719 105.015 11.6976 105.254C11.8953 105.573 12.1828 105.673 13.1172 105.752C14.0875 105.832 14.2133 105.792 13.8359 105.613C13.5844 105.493 13.1711 105.274 12.9015 105.114C12.65 104.955 12.3445 104.835 12.2367 104.835C12.1289 104.835 11.6078 104.616 11.0687 104.337C9.84685 103.719 9.6492 103.719 10.332 104.337Z" fill="#EFC731"/>
<path d="M52.2532 174.553C51.9657 174.732 51.7501 175.031 51.7501 175.231C51.7501 175.43 51.5704 175.948 51.3728 176.387C51.0314 177.104 50.9954 177.423 51.0853 178.818C51.1571 180.094 51.265 180.492 51.5884 180.891C52.1275 181.529 53.0618 181.529 53.8345 180.871C54.1579 180.592 54.5173 180.373 54.6431 180.373C54.9486 180.373 56.404 178.619 56.6196 178.021C56.7095 177.762 56.7814 177.164 56.7814 176.686C56.7814 175.569 56.1165 174.892 54.8048 174.693C54.3196 174.613 53.8704 174.473 53.7986 174.374C53.6368 174.075 52.7743 174.174 52.2532 174.553Z" fill="#EFC731"/>
<path d="M161.234 174.912C161.018 174.971 160.749 175.151 160.641 175.31C160.515 175.47 160.317 175.589 160.21 175.589C160.084 175.589 159.796 176.068 159.545 176.626C159.167 177.543 159.113 177.961 159.131 179.775C159.149 182.306 159.383 182.864 161.054 184.319C162.42 185.495 163.174 185.754 165.259 185.754C167.128 185.754 167.128 185.754 168.008 183.761C168.547 182.545 168.583 182.346 168.601 180.153C168.601 178.121 168.565 177.742 168.17 176.845C167.756 175.848 167.72 175.828 166.66 175.589C166.067 175.47 165.438 175.27 165.259 175.171C164.899 174.952 161.845 174.772 161.234 174.912Z" fill="#EFC731"/>
<path d="M94.983 202.755C93.4557 203.632 92.144 205.884 93.1502 205.884C93.3659 205.884 93.9588 206.243 94.4799 206.681C95.001 207.12 95.5041 207.478 95.6119 207.478C95.7198 207.478 96.2409 207.06 96.7799 206.542C97.7502 205.625 97.7502 205.605 97.7502 204.469C97.7502 202.416 96.708 201.758 94.983 202.755Z" fill="#EFC731"/>
<path d="M77.8945 206.661C77.1398 207.02 77.05 207.339 77.1938 209.352L77.3195 211.265H78.0563C78.4516 211.265 79.35 211.205 80.0148 211.126C81.075 211.026 81.2727 210.946 81.3984 210.568C81.4883 210.329 81.6859 210.069 81.8297 210.01C81.9914 209.93 82.1172 209.79 82.1172 209.651C82.1172 209.531 82.2789 209.212 82.4766 208.933C82.6742 208.654 82.8359 208.355 82.8359 208.296C82.8359 208.096 81.8297 207.478 81.5063 207.478C81.3445 207.478 80.9852 207.299 80.6977 207.06C80.1586 206.621 78.4875 206.362 77.8945 206.661Z" fill="#EFC731"/>
<path d="M119.672 215.77C119.223 216.128 118.684 216.527 118.468 216.646C118.234 216.746 118.055 216.926 118.055 217.045C118.055 217.145 117.947 217.244 117.839 217.244C117.57 217.244 116.761 218.919 116.438 220.134C116.312 220.573 116.132 221.051 116.042 221.171C115.934 221.31 115.899 221.549 115.952 221.729C116.024 221.888 115.988 222.068 115.881 222.147C115.773 222.227 115.791 222.426 115.934 222.685C116.078 222.925 116.294 223.523 116.438 224.021C116.563 224.519 116.779 225.057 116.887 225.217C117.013 225.376 117.39 226.193 117.749 227.01C118.486 228.665 118.971 229.402 119.349 229.402C119.492 229.402 119.762 229.542 119.959 229.701C120.445 230.12 121.523 230.06 122.277 229.601C122.637 229.382 123.032 229.203 123.158 229.203C123.284 229.203 123.535 229.023 123.715 228.804C123.895 228.585 124.128 228.406 124.236 228.406C124.649 228.406 127.003 225.536 127.129 224.878C127.201 224.519 127.327 224.18 127.417 224.121C127.506 224.041 127.578 223.044 127.578 221.888V219.776L126.931 218.958C125.656 217.324 125.494 217.165 124.559 216.507C124.002 216.108 123.212 215.75 122.583 215.63C122.026 215.51 121.415 215.331 121.253 215.231C120.768 214.952 120.552 215.032 119.672 215.77Z" fill="#EFC731"/>
<path d="M6.19922 220.134C5.8039 220.394 5.08515 220.832 4.58203 221.091C4.09687 221.35 3.57578 221.709 3.43203 221.888C3.30625 222.088 3.12656 222.227 3.03672 222.227C2.83906 222.227 1.97656 223.124 1.97656 223.343C1.97656 223.443 1.54531 224.001 1.02422 224.579C0.25156 225.476 0.161716 225.635 0.53906 225.516C1.31172 225.277 3.97109 223.782 4.52812 223.264C4.6539 223.164 5.21093 222.825 5.75 222.506C6.28906 222.207 6.86406 221.848 7.00781 221.709C7.15156 221.569 7.85234 221.41 8.53515 221.33C9.72109 221.231 9.84687 221.251 10.6195 221.809C11.3023 222.287 11.482 222.546 11.5898 223.144C11.6437 223.562 11.8594 224.121 12.057 224.38C12.2367 224.659 12.3984 224.978 12.3984 225.117C12.3984 225.257 12.5961 225.595 12.8656 225.914C13.2969 226.433 13.3328 226.433 13.6562 226.114C13.8539 225.914 14.0875 225.456 14.1953 225.097C14.375 224.499 14.3391 224.3 13.818 223.224C13.0812 221.689 12.6859 221.35 11.3383 221.051C10.7453 220.912 10.2062 220.732 10.1523 220.633C10.0805 220.513 9.72109 220.433 9.34375 220.433C8.94843 220.433 8.37343 220.254 8.05 220.035C7.29531 219.517 7.07968 219.536 6.19922 220.134Z" fill="#EFC731"/>
<path d="M87.2025 222.905C86.6814 223.024 86.0705 223.323 85.8548 223.582C85.4955 223.981 85.4416 224.22 85.4775 225.536C85.4955 226.771 85.5673 227.13 85.8728 227.489C86.0884 227.728 86.2502 228.027 86.2502 228.147C86.2502 228.426 87.2564 229.004 87.7056 229.004C87.8853 229.004 88.065 228.924 88.1369 228.804C88.1908 228.705 88.7298 228.565 89.3408 228.485C90.365 228.366 90.5267 228.266 91.4791 227.27C92.2338 226.452 92.5572 225.974 92.7009 225.336C92.8088 224.858 93.0064 224.36 93.1681 224.22C93.3119 224.081 93.4377 223.782 93.4377 223.543C93.4377 223.144 93.2939 223.084 91.6947 222.865C89.6283 222.586 88.4783 222.586 87.2025 222.905Z" fill="#EFC731"/>
</g>
<defs>
<clipPath id="clip0_138_384">
<rect width="230" height="230" fill="white"/>
</clipPath>
</defs>
</svg>
