<svg width="285" height="152" viewBox="0 0 285 152" fill="none" xmlns="http://www.w3.org/2000/svg">
<g clip-path="url(#clip0_158_1217)">
<path d="M229.714 1.13882C227.065 3.72326 226.998 6.57053 229.647 4.1613C230.449 3.43854 232.23 0.65698 232.23 0.131331C232.23 0.0656257 231.941 -8.05855e-05 231.562 -8.05855e-05C231.072 -8.05855e-05 230.627 0.284646 229.714 1.13882Z" fill="#EFC731"/>
<path d="M284.243 1.29227C284.154 1.44559 284.131 1.6208 284.198 1.68651C284.399 1.88363 284.621 1.5989 284.51 1.29227C284.421 1.05135 284.376 1.05135 284.243 1.29227Z" fill="#EFC731"/>
<path d="M226.352 5.89157C225.929 6.32961 225.885 6.85525 226.263 6.74574C226.664 6.61433 227.154 5.76015 226.931 5.60684C226.82 5.54113 226.553 5.67255 226.352 5.89157Z" fill="#EFC731"/>
<path d="M122.238 6.83338C122.238 7.0305 122.349 7.27142 122.483 7.33713C122.861 7.57805 122.928 7.33713 122.572 6.87718C122.283 6.50485 122.26 6.50485 122.238 6.83338Z" fill="#EFC731"/>
<path d="M102.333 7.90661C102.021 8.27895 101.754 8.65128 101.754 8.76079C101.754 8.8703 100.841 9.9654 99.7276 11.2138C98.592 12.4622 97.3229 13.9954 96.8998 14.6086C96.4768 15.2438 95.9869 15.7694 95.8311 15.7694C95.6752 15.7694 95.408 15.8351 95.2076 15.9008C94.9627 15.9885 94.8514 15.9228 94.8514 15.6818C94.8514 15.1562 94.5619 15.2438 93.8494 15.9885C93.4932 16.3389 93.0033 16.6455 92.7361 16.6455C92.4912 16.6455 92.1127 16.8426 91.8901 17.0836C91.4225 17.6311 91.8455 17.6749 92.5803 17.1712C92.8697 16.974 93.226 16.8864 93.3819 16.9302C93.56 16.9959 93.8717 16.9302 94.0944 16.7769C94.3838 16.5798 94.6955 16.536 95.0295 16.6674C95.4526 16.8207 95.4971 16.9302 95.2967 17.2807C94.9182 18.0034 95.0295 18.6167 95.5416 18.6167C96.5436 18.6167 99.5494 15.0467 101.62 11.389C102.065 10.6006 102.733 9.61497 103.09 9.19883C103.446 8.78269 103.802 8.16944 103.869 7.81901C104.003 7.29336 103.958 7.22765 103.468 7.22765C103.112 7.22765 102.689 7.46857 102.333 7.90661Z" fill="#EFC731"/>
<path d="M171.557 12.7032C171.089 13.2069 171.29 13.5574 171.846 13.2288C172.269 12.966 172.492 12.2652 172.158 12.2652C172.047 12.2652 171.779 12.4623 171.557 12.7032Z" fill="#EFC731"/>
<path d="M169.998 14.9372C168.573 15.4191 167.593 16.9084 168.461 17.237C169.285 17.5436 171.534 15.5724 171.111 14.8934C170.955 14.6306 170.866 14.6306 169.998 14.9372Z" fill="#EFC731"/>
<path d="M218.916 15.5943C218.604 15.9009 218.559 16.4265 218.849 16.4265C218.96 16.4265 219.16 16.2732 219.316 16.098C219.695 15.66 219.316 15.2 218.916 15.5943Z" fill="#EFC731"/>
<path d="M90.1981 17.653C89.5301 18.4853 89.5969 19.1642 90.3094 18.9014C90.6434 18.77 91.2891 17.7187 91.2891 17.3026C91.2891 16.8864 90.6434 17.0835 90.1981 17.653Z" fill="#EFC731"/>
<path d="M168.885 17.9593C168.818 18.069 168.862 18.1786 168.974 18.1786C169.108 18.1786 169.219 18.069 169.219 17.9593C169.219 17.8276 169.175 17.7399 169.13 17.7399C169.063 17.7399 168.952 17.8276 168.885 17.9593Z" fill="#EFC731"/>
<path d="M209.831 19.3833C209.408 19.69 209.408 19.69 209.876 19.7119C210.143 19.7119 210.477 19.5585 210.633 19.3833C211.011 18.9453 210.432 18.9234 209.831 19.3833Z" fill="#EFC731"/>
<path d="M88.6172 19.4925C88.6172 19.6022 88.7287 19.7119 88.8402 19.7119C88.9741 19.7119 89.0633 19.6022 89.0633 19.4925C89.0633 19.3608 88.9741 19.2731 88.8402 19.2731C88.7287 19.2731 88.6172 19.3608 88.6172 19.4925Z" fill="#EFC731"/>
<path d="M277.519 19.8213C277.429 20.0185 277.474 20.2813 277.608 20.4127C277.942 20.7412 278.587 20.4346 278.498 19.9966C278.409 19.4928 277.697 19.3614 277.519 19.8213Z" fill="#EFC731"/>
<path d="M87.1029 20.4126C86.7912 20.7193 86.7466 21.2449 87.0138 21.2449C87.281 21.2449 87.7263 20.7412 87.7263 20.4345C87.7263 20.0841 87.4591 20.0622 87.1029 20.4126Z" fill="#EFC731"/>
<path d="M214.796 21.8582C214.306 22.3839 214.329 22.5591 214.841 22.5591C215.063 22.5591 215.331 22.4058 215.397 22.2086C215.709 21.3983 215.397 21.2012 214.796 21.8582Z" fill="#EFC731"/>
<path d="M162.673 22.6905C162.383 22.9533 162.361 23.1285 162.539 23.3037C162.828 23.5885 163.541 23.2161 163.541 22.7781C163.541 22.3181 163.073 22.2743 162.673 22.6905Z" fill="#EFC731"/>
<path d="M153.878 23.7417C153.7 23.9388 153.633 24.1579 153.722 24.2455C153.922 24.4426 154.368 23.9607 154.256 23.6541C154.212 23.4789 154.078 23.5008 153.878 23.7417Z" fill="#EFC731"/>
<path d="M179.506 24.7493C178.504 25.1873 178.103 25.7787 178.57 26.0634C179.149 26.4138 181.02 25.2968 181.02 24.596C181.02 24.2017 180.641 24.2455 179.506 24.7493Z" fill="#EFC731"/>
<path d="M181.687 27.5527C181.131 28.0127 181.242 28.5383 181.865 28.3193C182.355 28.1441 183.023 27.5746 183.023 27.3337C183.023 27.0052 182.199 27.1366 181.687 27.5527Z" fill="#EFC731"/>
<path d="M210.7 27.487C210.633 27.6842 210.633 27.8813 210.7 27.947C210.9 28.1441 211.301 27.8156 211.301 27.4651C211.301 27.049 210.878 27.0709 210.7 27.487Z" fill="#EFC731"/>
<path d="M219.005 27.509C218.448 28.0346 218.582 28.2975 219.205 27.9032C219.762 27.5528 219.94 27.1586 219.561 27.1586C219.45 27.1586 219.183 27.3119 219.005 27.509Z" fill="#EFC731"/>
<path d="M268.078 28.4727C267.9 28.6041 267.187 28.845 266.519 29.0421C263.157 30.0277 257.992 33.4663 255.787 36.2041C255.32 36.7954 254.941 37.4963 254.941 37.7591C254.941 38.2848 252.581 40.1464 249.531 42.03C248.707 42.5557 248.061 43.0156 248.106 43.0813C248.239 43.1908 251.913 40.8911 253.828 39.5113C255.186 38.5257 255.342 38.46 256.722 38.4381C257.88 38.4162 258.437 38.2848 259.55 37.7153C261.309 36.8173 263.536 35.2842 265.117 33.8825C266.92 32.2617 269.458 29.1954 269.369 28.7355C269.28 28.2974 268.568 28.1441 268.078 28.4727Z" fill="#EFC731"/>
<path d="M175.275 28.9545C174.896 29.3268 174.941 29.5677 175.409 29.5677C175.832 29.5677 176.344 29.1735 176.344 28.8669C176.344 28.6041 175.564 28.6698 175.275 28.9545Z" fill="#EFC731"/>
<path d="M182.689 28.9103C182.622 29.02 182.667 29.1297 182.779 29.1297C182.912 29.1297 183.024 29.02 183.024 28.9103C183.024 28.7787 182.979 28.6909 182.935 28.6909C182.868 28.6909 182.756 28.7787 182.689 28.9103Z" fill="#EFC731"/>
<path d="M209.631 29.7648C206.959 30.9913 205.333 32.7654 203.641 36.2259C203.107 37.3429 202.127 38.8761 201.482 39.6426C200.814 40.3873 199.945 41.4386 199.544 41.9643C199.144 42.4899 198.676 42.9279 198.498 42.9279C198.142 42.9279 197.451 43.8478 197.54 44.1983C197.674 44.6144 196.605 45.7533 195.603 46.2351C194.401 46.8265 194.067 47.1769 194.245 47.6369C194.357 47.9435 194.535 47.8778 195.381 47.3083C195.937 46.936 196.383 46.5418 196.383 46.4323C196.383 46.1037 197.741 44.6801 198.053 44.6801C198.208 44.6801 198.387 44.8334 198.476 45.0086C198.765 45.7971 200.146 45.2057 203.352 42.9498C208.072 39.6426 210.032 37.6715 211.345 34.9118C212.458 32.5683 212.481 29.1078 211.367 29.1516C211.145 29.1516 210.365 29.4363 209.631 29.7648Z" fill="#EFC731"/>
<path d="M131.033 33.0721C130.788 33.1597 130.343 33.5101 130.053 33.8168C129.408 34.4957 129.675 34.9557 130.543 34.7367C131.256 34.5614 132.48 33.5758 132.48 33.1597C132.48 32.8312 131.745 32.7655 131.033 33.0721Z" fill="#EFC731"/>
<path d="M127.248 33.5539C125.645 34.3424 123.262 35.766 122.572 36.3136C122.216 36.6202 121.192 37.1897 120.323 37.562C119.321 38.022 118.052 38.898 116.761 39.9931C115.647 40.9568 114 42.3367 113.087 43.0594C109.324 46.1257 105.984 49.7833 105.984 50.8565C105.984 52.5649 108.879 50.3966 115.892 43.3879C122.394 36.905 124.331 35.328 126.869 34.5176C128.072 34.1234 128.673 33.6196 128.339 33.2911C128.227 33.1816 127.76 33.2911 127.248 33.5539Z" fill="#EFC731"/>
<path d="M181.776 33.8385C180.129 34.189 178.682 34.8898 176.9 36.204C174.919 37.6495 174.073 38.5037 174.162 38.9417C174.273 39.555 175.052 39.4893 176.455 38.7446C177.167 38.3723 178.548 37.8466 179.483 37.5619C181.643 36.9486 183.201 36.0726 183.38 35.3936C183.446 35.1089 183.736 34.6489 184.048 34.3642C185.005 33.4662 184.27 33.291 181.776 33.8385Z" fill="#EFC731"/>
<path d="M168.083 34.4957C166.191 35.1746 164.81 36.4888 165.389 37.0582C165.946 37.6058 169.753 35.0651 169.352 34.4081C169.152 34.1233 169.107 34.1233 168.083 34.4957Z" fill="#EFC731"/>
<path d="M151.517 36.0945C150.382 36.3574 150.003 36.8611 149.09 39.4455C148.578 40.8692 146.864 42.0957 141.72 44.7677C140.629 45.3372 139.36 46.0819 138.937 46.3885C137.334 47.5712 133.015 51.9078 130.476 54.8646C126.981 58.9602 126.869 59.0479 125.244 59.2231C123.529 59.4202 121.347 60.4496 120.59 61.4352C120.279 61.8294 119.945 62.596 119.878 63.1216C119.811 63.6473 119.633 64.2386 119.477 64.4357C118.987 65.0928 110.326 71.1816 109.858 71.1816C108.5 71.1816 105.071 72.868 103.713 74.204C103.134 74.7516 102.466 75.6058 102.221 76.1095C101.731 77.117 100.997 77.8398 98.7255 79.4167C97.7904 80.0738 97.1892 80.3804 97.1224 80.2052C97.0779 80.0519 96.8107 79.9424 96.5212 79.9424C95.831 79.9424 94.1833 80.5337 93.7158 80.9499C93.5154 81.1251 92.7583 81.4317 92.0681 81.6069C91.3556 81.804 89.9529 82.3735 88.9509 82.921C87.949 83.4467 86.9693 83.8847 86.7689 83.8847C86.5685 83.8847 86.3904 83.9723 86.3904 84.0819C86.3904 84.4323 83.006 85.396 77.5955 86.5349C76.3708 86.7977 74.879 87.1262 74.2556 87.2795C73.031 87.5862 72.6525 87.4329 73.0087 86.7758C73.4095 86.053 80.5122 79.5481 83.4736 77.2265C86.2345 75.0363 88.5724 72.9775 87.949 73.2842C87.0361 73.7441 81.5142 78.0369 78.3747 80.7308C71.2943 86.8196 71.0271 87.0386 70.5372 86.5568C70.3814 86.4035 69.9806 86.294 69.6466 86.294C69.3126 86.294 69.0232 86.1844 69.0232 86.053C69.0232 85.6369 69.9361 84.498 72.029 82.3297C74.5228 79.6796 75.6361 78.7816 79.822 76.0219C83.4958 73.6127 91.556 67.9839 93.0478 66.8231C93.5599 66.4288 93.9384 66.0565 93.8939 65.9908C93.8271 65.947 92.4021 66.8669 90.7099 68.0715C88.9955 69.2542 87.1697 70.5464 86.613 70.9406C84.9876 72.0796 78.5751 76.219 78.4638 76.219C78.1744 76.219 84.4755 70.634 86.7244 68.8819C89.1736 66.9764 92.558 63.7349 94.2279 61.698C95.2076 60.5153 95.9646 59.5078 95.8978 59.4421C95.8533 59.3764 94.3615 60.7781 92.6025 62.5303C90.8435 64.3043 88.5056 66.4726 87.3923 67.3706C86.3013 68.2686 84.5423 69.6922 83.4958 70.5464C80.1115 73.3061 73.0087 78.453 69.1345 80.9499C67.0638 82.3078 64.5033 83.9942 63.4568 84.717C62.4103 85.4179 60.1169 86.7758 58.3357 87.7176C56.5544 88.6594 54.5505 89.7764 53.8826 90.1925C53.2146 90.6306 51.0548 91.7038 49.0954 92.5798C44.9318 94.4634 44.1525 94.9672 42.9501 96.4565C42.3267 97.2231 41.7255 97.683 41.013 97.9677C39.588 98.4934 36.9161 99.0409 36.7158 98.8438C36.6267 98.7343 36.6712 98.1868 36.8048 97.5954C36.9829 96.8069 37.2724 96.3032 37.8513 95.7994C39.5658 94.2444 44.0634 90.6744 45.5552 89.6669C46.4236 89.0755 47.715 88.1556 48.4275 87.6081C49.1177 87.0605 50.9212 85.7026 52.413 84.5637C55.1294 82.5049 55.8642 81.8917 55.2185 82.2421C54.7954 82.483 47.6482 87.2357 45.2658 88.8784C44.2638 89.5574 42.8611 90.521 42.1486 91.0029C41.4361 91.4847 39.922 92.5579 38.7865 93.3902C36.5376 95.0329 35.9142 95.2519 33.2423 95.2738C31.372 95.2738 30.949 95.1424 30.949 94.5948C30.949 93.9378 36.5822 88.3746 38.3857 87.2357C39.2318 86.6882 40.5232 85.7683 41.2357 85.177C41.9704 84.5856 42.9724 83.8847 43.4845 83.6219C43.9966 83.381 45.0654 82.5487 45.8669 81.804C46.6685 81.0594 48.2271 79.8548 49.3181 79.1101C51.0326 77.9931 53.9048 75.8248 57.5341 72.8899C58.1798 72.3643 58.6697 72.1891 59.4267 72.1453C60.629 72.0576 61.4306 71.5539 61.965 70.4807C63.1896 68.0715 59.8052 67.6115 58.3802 69.9989C58.0685 70.5464 57.9126 71.0721 57.9794 71.4444C58.0908 71.9481 58.0017 72.0796 57.5341 72.1891C57.2447 72.2548 56.8661 72.4957 56.7103 72.7147C56.5767 72.9118 56.1091 73.2623 55.7306 73.4594C55.3298 73.6565 54.9958 73.8974 54.9958 73.985C54.9958 74.204 51.2775 77.0075 50.0083 77.7522C49.474 78.0588 48.1603 79.0006 47.0693 79.8548C45.9783 80.7308 44.6201 81.7164 44.0634 82.045C43.5068 82.3954 42.1486 83.3372 41.0576 84.1476C38.5861 85.9873 37.0052 86.8634 36.6935 86.5568C36.4708 86.3378 45.1767 77.5331 59.3376 63.6254C62.0318 60.9752 65.1935 57.8213 66.3513 56.5948C68.4443 54.4265 69.847 53.4409 73.031 51.9297C73.5876 51.6669 74.6341 51.0755 75.3689 50.5937C76.1037 50.1337 76.7716 49.7395 76.8829 49.7395C76.972 49.7176 77.2615 49.9585 77.5287 50.2651C78.4415 51.3164 79.4658 50.747 80.6236 48.5349C81.2693 47.3084 81.3361 47.0675 81.0912 46.5637C80.6013 45.4686 79.3544 45.9724 78.1966 47.7245C77.729 48.4254 77.1501 48.951 76.5267 49.2577C75.458 49.7833 73.4318 50.9879 71.6505 52.1487C71.0048 52.5868 70.2255 53.0467 69.9361 53.2C69.4908 53.4409 69.4462 53.4409 69.6466 53.0686C69.7802 52.8496 70.0919 52.4772 70.3591 52.2363C70.6263 51.9954 71.3611 51.2069 72.0068 50.4842C72.6302 49.7614 71.8287 50.4404 70.2478 52.0173C67.6204 54.6017 67.1529 54.9741 65.1712 55.9378C63.9689 56.5291 62.9447 57.0986 62.8556 57.23C62.7888 57.3395 63.5904 56.9891 64.6591 56.4634C65.7056 55.9159 66.574 55.5435 66.574 55.6311C66.574 55.8721 46.4236 75.6934 40.7458 81.0594C34.1775 87.2576 32.6634 88.5937 31.2384 89.4917C28.856 90.981 24.3806 92.4265 22.1318 92.4265C19.7716 92.4265 16.6767 93.6311 15.0736 95.1643C14.606 95.6242 13.9603 96.5003 13.6486 97.1574C13.3368 97.7925 12.5798 98.8876 11.9786 99.5885L10.8431 100.837L10.999 102.261C11.1103 103.64 11.1103 103.684 10.331 104.538C9.55169 105.371 9.52943 105.458 9.61849 106.685C9.77435 108.831 10.9099 109.839 12.6689 109.379C13.3146 109.203 13.604 109.225 14.0048 109.466C14.2943 109.663 15.0958 109.817 15.8751 109.839C16.8326 109.861 17.7009 110.08 18.7029 110.496C20.0611 111.065 20.3728 111.109 23.2673 111.131C26.4958 111.153 27.4087 110.956 29.6798 109.795C30.0806 109.598 31.1493 109.182 32.0622 108.875C33.6208 108.349 33.8212 108.327 35.1794 108.568C38.7197 109.225 38.4079 109.072 38.9868 110.561C39.3876 111.678 39.8329 111.788 41.7033 111.284C43.4177 110.802 44.3751 110.824 47.3142 111.372C48.1826 111.525 49.9861 111.788 51.3443 111.919C53.9939 112.204 54.5951 112.095 55.5079 111.087C55.7306 110.868 56.3095 110.496 56.7994 110.277C57.6455 109.904 57.9794 109.882 61.7423 110.123C70.5595 110.715 85.0767 111.459 87.7263 111.481L88.7283 111.503L87.8376 112.292L86.947 113.058L88.0826 112.292L89.2181 111.503L91.4224 111.613C92.6247 111.678 99.2376 111.81 106.095 111.919C112.953 112.007 118.72 112.16 118.898 112.248C119.076 112.314 119.433 112.686 119.677 113.058C120.078 113.65 120.256 113.715 121.347 113.759C122.038 113.803 123.24 113.978 124.019 114.153C126.201 114.679 128.049 114.986 129.163 114.986C130.387 115.008 129.897 115.358 128.383 115.555C127.649 115.665 127.226 115.599 126.825 115.336C126.135 114.898 125.578 114.876 125.578 115.292C125.578 115.467 125.377 115.665 125.155 115.752C124.554 115.927 123.151 117.504 122.772 118.424C122.349 119.388 122.527 119.979 123.507 120.812L124.286 121.491L123.485 121.972C123.062 122.235 122.349 122.87 121.926 123.352C121.214 124.163 120.991 124.272 119.188 124.622C114.69 125.542 109.97 125.805 108.656 125.236C108.233 125.039 107.409 124.447 106.83 123.878C105.45 122.52 104.292 122.498 103.624 123.79C103.201 124.579 103.357 125.323 104.114 126.309C104.537 126.856 104.915 127.054 105.917 127.251C107.231 127.535 107.943 127.448 110.66 126.703C111.328 126.506 113.087 126.112 114.556 125.827C116.026 125.52 117.918 125.126 118.765 124.951C119.611 124.776 120.345 124.666 120.39 124.71C120.679 124.973 113.911 127.776 108.99 129.441C96.3431 133.69 83.2732 136.712 74.0107 137.545C72.5412 137.676 69.6244 138.114 67.5537 138.53C65.4829 138.946 63.5013 139.297 63.1228 139.297C62.7665 139.297 62.299 139.406 62.1208 139.538C61.8759 139.713 62.1208 139.735 63.0115 139.647C63.6794 139.582 65.4829 139.406 67.0193 139.297C70.0919 139.056 71.3165 138.859 74.9236 138.092C76.2818 137.808 79.4435 137.216 81.9818 136.8C90.1978 135.42 93.2927 134.719 100.974 132.573C105.183 131.412 114.824 128.28 117.651 127.163C118.742 126.747 119.744 126.44 119.856 126.528C119.989 126.594 120.212 126.484 120.368 126.265C120.568 125.98 121.125 125.827 122.305 125.718C124.331 125.52 126.001 124.798 127.515 123.462C129.051 122.126 133.972 119.826 134.751 120.067C134.952 120.133 134.996 120.724 134.952 122.082C134.885 124.097 135.063 124.622 135.865 124.622C136.421 124.622 137.267 124.031 139.494 122.104C140.963 120.833 141.498 120.505 142.522 120.264C143.724 119.979 143.813 119.979 144.459 120.461C145.127 120.943 145.238 120.965 146.396 120.702C147.176 120.527 148.177 120.483 149.068 120.571C150.226 120.702 150.716 120.636 151.673 120.286C153.076 119.76 155.948 119.366 158.442 119.366C160.134 119.366 160.891 119.256 166.101 118.293C172.313 117.154 177.167 114.854 180.685 111.394C181.42 110.671 183.268 109.247 184.804 108.218C188.545 105.721 194.201 102.042 194.98 101.603C197.474 100.158 204.176 95.9308 204.176 95.7775C204.176 95.7118 203.842 95.8651 203.463 96.1061C203.062 96.347 201.726 97.0917 200.502 97.7925C199.277 98.4934 197.919 99.3038 197.474 99.5885C197.051 99.8513 196.627 100.092 196.538 100.092C196.472 100.092 195.87 100.399 195.225 100.771C194.579 101.165 193.911 101.472 193.777 101.472C193.622 101.472 193.488 101.56 193.488 101.669C193.488 101.779 193.11 102.02 192.664 102.239C192.197 102.436 191.774 102.677 191.707 102.742C191.351 103.159 187.231 105.13 186.719 105.13C185.428 105.13 186.296 104.385 189.814 102.523C195.381 99.5666 200.413 96.4127 206.179 92.2294C207.582 91.2219 209.096 90.1268 209.519 89.8421C210.677 89.0098 216.065 84.936 216.31 84.6732C216.756 84.2352 215.13 85.3084 213.082 86.8415C199.856 96.6098 189.079 102.72 185.094 102.72C183.914 102.72 184.159 102.042 185.895 100.421C187.988 98.4496 189.525 97.2669 193.644 94.4196C195.581 93.0836 197.719 91.5504 198.386 91.0029C199.054 90.4772 200.235 89.5574 200.992 88.9879C201.749 88.3966 202.327 87.9147 202.283 87.8709C202.06 87.63 197.14 90.3896 194.624 92.1856C186.074 98.2306 186.541 97.9239 185.695 97.8582C184.203 97.7268 184.626 96.6974 187.231 94.0692C188.055 93.2369 189.124 92.4703 190.081 92.0104C190.905 91.5942 192.352 90.762 193.265 90.1706C196.405 88.1118 200.39 85.3303 200.301 85.2646C200.168 85.1332 197.941 86.2721 196.828 87.0386C195.915 87.6738 191.15 90.4991 189.992 91.0905C189.258 91.4628 189.079 91.3971 188.924 90.6525C188.79 90.083 188.879 89.864 189.502 89.2069C189.926 88.7908 190.838 88.1556 191.551 87.7833C192.241 87.411 192.82 86.9948 192.82 86.8634C192.82 86.732 192.464 86.3816 192.041 86.0968C191.618 85.8121 191.261 85.5055 191.261 85.396C191.261 84.9579 195.403 82.2859 199.054 80.3366C200.479 79.5919 201.281 79.3072 202.283 79.2196C204.131 79.0444 205.845 78.1245 206.803 76.8104C208.183 74.9268 208.005 72.9337 206.358 71.9262C205.89 71.6415 205.511 71.313 205.511 71.2035C205.511 71.0502 206.936 69.6922 213.304 63.8444C215.331 62.0046 219.583 58.2375 222.055 56.113C222.879 55.434 224.66 53.8352 226.04 52.6087C228.289 50.5718 228.556 50.3966 228.623 50.8565C228.735 51.7326 229.158 52.5648 229.603 52.8058C230.449 53.2438 232.698 52.4334 235.125 50.8346C235.681 50.4623 236.327 50.1556 236.55 50.1556C236.795 50.1556 237.574 49.7176 238.264 49.17C238.977 48.6225 239.934 48.0092 240.402 47.7902C240.869 47.5931 241.849 47.0017 242.584 46.5199C243.319 46.0381 244.632 45.2277 245.478 44.7239C246.347 44.2421 247.237 43.6726 247.482 43.4755C248.039 43.0156 247.326 43.4098 243.14 45.8847L239.912 47.7683L241.493 46.1695C243.563 44.0669 244.721 42.3366 244.855 41.1101C244.966 40.2778 244.899 40.1026 244.387 39.7084C241.248 37.2772 232.275 42.03 229.425 47.615C229.024 48.4473 228.668 49.2796 228.668 49.4767C228.668 49.8052 222.723 55.215 221.81 55.7187C221.61 55.8283 221.81 55.4778 222.255 54.9522C223.68 53.2438 223.547 52.2801 221.877 51.9078C220.63 51.6231 219.695 51.8202 217.646 52.8496C215.486 53.9666 213.06 56.1349 212.369 57.5804C211.991 58.4127 211.412 58.9821 209.475 60.4715C208.139 61.479 206.669 62.4865 206.224 62.7274C205.779 62.9464 204.799 63.6911 204.064 64.37C203.307 65.049 201.815 66.3412 200.724 67.2392C199.656 68.1372 197.941 69.6265 196.939 70.5245C192.753 74.3136 190.059 76.5695 189.302 76.9637C188.857 77.1827 187.499 78.015 186.296 78.7597C185.094 79.5262 184.047 80.1614 183.981 80.1614C183.914 80.1614 183.201 80.6432 182.377 81.2127C178.058 84.3009 175.275 85.8559 174.072 85.8559C173.672 85.8559 173.338 85.6807 173.093 85.3084C172.781 84.8265 172.759 84.6513 173.026 84.0381C173.182 83.6657 173.471 83.0963 173.672 82.7896C173.894 82.483 174.429 81.6945 174.874 81.0156C175.831 79.5919 177.724 77.7084 179.505 76.3942C180.218 75.8686 181.509 74.883 182.422 74.1821C183.491 73.3718 186.118 71.8824 190.059 69.8893C205.267 62.2017 204.621 62.5741 208.473 59.2012C211.835 56.2882 212.436 55.0179 211.746 52.521C211.434 51.4697 210.855 51.1631 209.497 51.3164C206.157 51.7107 201.548 55.2807 196.717 61.1504C195.047 63.1873 194.379 64.3481 194.379 65.1366C194.379 65.8156 193.577 66.3412 188.367 69.1009C182.867 71.9919 181.42 72.9994 177.969 76.3066C176.833 77.3798 175.854 78.2121 175.787 78.1683C175.431 77.8179 176.856 73.3061 178.058 70.9625C178.459 70.196 178.748 69.517 178.704 69.4951C178.637 69.4075 177.546 71.1816 176.833 72.4957C176.677 72.8023 176.366 73.2842 176.143 73.5689C175.809 74.0069 175.698 74.0507 175.297 73.8098C174.896 73.5689 174.74 73.6127 174.05 74.1164C173.404 74.5983 173.182 74.664 172.803 74.4888C172.558 74.3574 172.202 74.2478 172.002 74.2478C171.623 74.2478 168.395 77.2922 168.484 77.5551C168.506 77.6208 168.083 78.2121 167.526 78.8473C166.947 79.5262 166.569 80.1395 166.636 80.3147C166.814 80.7308 165.767 81.8259 164.721 82.3735C164.253 82.6144 163.875 82.7239 163.875 82.6582C163.875 82.5706 164.676 81.6507 165.656 80.5775C166.636 79.5262 167.437 78.6063 167.437 78.5187C167.437 78.4311 167.66 78.1902 167.949 77.9493C168.217 77.7303 168.328 77.5551 168.194 77.5331C168.061 77.5331 167.816 77.6646 167.682 77.8398C167.393 78.1902 164.788 79.3729 164.632 79.2196C164.565 79.1758 165.901 77.9931 167.593 76.6352C169.285 75.2772 171.022 73.8317 171.445 73.4594C173.605 71.532 173.939 71.4006 173.249 72.7147C173.048 73.1089 173.204 73.0213 173.805 72.3862C174.273 71.9043 174.963 71.3568 175.319 71.1816C175.854 70.9187 176.032 70.6559 176.143 69.9551C176.299 69.1447 176.811 68.5533 181.398 64.0415C186.296 59.2231 185.985 59.3983 180.574 64.5014C179.171 65.8156 178.236 66.6697 178.459 66.385C178.793 66.0127 178.904 65.5089 178.926 64.5234C178.949 63.8006 179.082 62.6179 179.216 61.8951C179.372 61.1942 179.416 60.5591 179.349 60.4934C179.104 60.2306 178.281 62.596 178.258 63.6692C178.236 64.5453 178.147 64.83 177.858 64.8957C177.435 65.0052 176.121 67.1516 176.121 67.721C176.121 67.9401 176.277 68.1153 176.499 68.1153C176.811 68.1153 176.811 68.181 176.388 68.5533C176.121 68.7942 175.765 68.9914 175.564 68.9914C175.386 68.9914 174.896 69.4513 174.473 70.0208C173.694 71.094 172.603 72.1014 168.551 75.4525C167.259 76.5257 165.701 77.8617 165.055 78.453C164.053 79.351 163.763 79.5043 162.984 79.5043C161.225 79.5043 156.327 81.4098 154.301 82.8772C153.877 83.2058 151.161 85.7464 148.289 88.5499L143.056 93.6311L140.162 95.1643C136.087 97.3107 134.974 97.8144 133.46 98.2306C132.035 98.6467 128.294 100.048 126.691 100.793C124.888 101.603 124.131 101.669 121.993 101.1C121.526 100.968 121.236 101.078 120.635 101.582C119.21 102.83 113.065 103.991 105.338 104.473C103.446 104.582 101.397 104.757 100.774 104.823L99.6384 104.976L101.531 103.224C105.027 99.9827 105.739 99.4571 107.387 98.9752C109.68 98.2963 110.66 97.0478 110.727 94.7262C110.749 93.5435 110.304 92.536 109.636 92.2732C109.057 92.0542 107.988 92.6893 107.342 93.6092C106.986 94.113 106.429 95.2957 106.073 96.2375C105.338 98.2963 104.247 99.7637 101.553 102.348C99.7052 104.144 99.4826 104.276 98.8591 104.144C98.2357 104.013 98.0798 104.144 98.1689 104.735C98.2134 104.998 97.4564 105.261 96.6326 105.239C96.1205 105.239 95.8533 105.13 95.8533 104.933C95.8533 104.757 95.7197 104.582 95.5415 104.516C95.3412 104.451 95.2966 104.538 95.3857 104.867C95.5193 105.239 95.408 105.327 94.6955 105.436C92.5802 105.787 85.2548 106.028 73.3872 106.159C63.0115 106.269 60.4732 106.225 60.3396 106.006C60.0501 105.546 60.5177 104.604 61.4306 103.728C62.2099 102.983 62.3435 102.939 62.7665 103.202C63.1451 103.421 63.3232 103.421 63.6794 103.202C63.9244 103.071 64.5923 102.918 65.1712 102.896L66.24 102.874L65.0154 102.742L63.7908 102.611L64.904 101.976C65.5275 101.625 67.7318 100.267 69.8247 98.9533C72.9642 97.004 73.9884 96.5003 75.5693 96.0404C78.2412 95.2738 79.7775 94.6167 82.3826 93.0836C83.5849 92.3608 85.0767 91.5504 85.6556 91.2438C86.2345 90.9591 87.1697 90.3239 87.7263 89.8421C89.3517 88.4404 95.0072 85.4836 101.331 82.7239C101.999 82.4392 103.201 81.6945 103.958 81.0813C104.715 80.4899 105.962 79.6576 106.697 79.2853C108.01 78.5844 108.055 78.5844 108.79 78.9349C109.257 79.132 109.547 79.4386 109.547 79.7015C109.547 80.4461 110.103 80.6651 111.84 80.5556C114.49 80.3585 119.989 78.2778 123.285 76.1752C124.108 75.6277 125.533 74.5764 126.424 73.7879C127.827 72.5833 128.049 72.2986 127.938 71.8167C127.827 71.2911 127.983 71.1378 129.541 70.2398C132.458 68.5752 133.883 67.9401 135.776 67.5677C136.176 67.4801 137 67.0859 137.624 66.6697C138.648 65.9908 139.961 65.487 140.696 65.487C140.852 65.487 141.32 65.1585 141.72 64.7424C142.255 64.1729 142.99 63.8006 144.526 63.2749C148.066 62.0703 149.536 61.4352 150.649 60.5591C152.23 59.3107 152.297 59.2231 151.161 59.8801C150.604 60.1868 149.892 60.4496 149.602 60.4496C148.845 60.4496 143.724 61.917 142.7 62.4427C142.233 62.6617 141.587 62.8588 141.275 62.8588C140.474 62.8588 139.516 63.3844 139.071 64.0634C138.626 64.7424 137.111 65.4651 136.176 65.487C135.798 65.487 135.308 65.6842 135.063 65.9251C134.796 66.1441 134.195 66.4945 133.705 66.7136C132.948 67.0202 132.881 67.0202 133.126 66.7136C133.482 66.2974 133.26 65.9251 132.681 65.9251C131.812 65.9251 132.28 65.2899 133.482 64.8519C135.976 63.932 138.269 62.6179 140.607 60.7781C141.097 60.3839 141.921 59.8582 142.433 59.5954C143.368 59.1355 143.724 58.5879 143.479 57.9746C143.279 57.4271 142.767 57.3614 141.431 57.6899C140.719 57.8651 139.427 58.0842 138.559 58.1718C136.11 58.3908 136.154 58.0842 138.982 55.2369C140.273 53.9447 141.453 52.6744 141.587 52.3896C142.01 51.6231 141.542 51.2069 140.295 51.2507C138.626 51.3164 138.648 51.3164 139.16 50.5937C139.895 49.5862 139.516 49.4329 138.069 50.1556C136.911 50.7251 135.597 51.8859 135.597 52.3239C135.597 52.4334 135.019 52.8496 134.328 53.2876C132.636 54.317 131.968 55.0179 131.99 55.7844C132.079 57.4052 132.169 57.9089 132.436 57.9746C132.569 58.0404 132.703 58.2813 132.703 58.5441C132.725 58.8069 132.859 59.2669 133.037 59.5735C133.549 60.4715 133.438 60.8657 132.235 62.0265C131.634 62.6398 131.055 63.4283 130.988 63.7787C130.899 64.2386 130.565 64.5672 129.608 65.0928C128.918 65.487 127.47 66.385 126.357 67.0859C125.266 67.7868 123.797 68.6628 123.129 69.0133C122.461 69.3856 121.615 69.8455 121.236 70.0427C120.88 70.2398 119.767 70.853 118.787 71.3787C117.807 71.9043 116.738 72.5614 116.404 72.8242C116.004 73.1527 115.269 73.3937 114.089 73.5689C111.885 73.8974 111.506 73.6346 112.731 72.6709C113.354 72.1672 113.554 71.8605 113.554 71.3568C113.554 70.9845 113.399 70.5683 113.198 70.4369C112.909 70.2179 113.399 69.8017 116.382 67.8525C120.635 65.049 121.058 64.83 122.283 64.83C124.487 64.8081 126.914 62.8369 126.914 61.0628C126.914 60.6029 127.047 59.902 127.226 59.5078C127.515 58.8507 136.644 49.5643 138.158 48.4035C139.828 47.0894 141.81 45.9066 145.572 43.9355C149.09 42.0957 149.914 41.7453 151.473 41.4824C153.432 41.1539 154.078 40.8254 154.679 39.9493C155.926 38.0657 153.855 35.547 151.517 36.0945ZM219.873 57.5804C218.537 58.7412 212.993 63.5159 210.633 65.5089C208.985 66.9107 206.447 69.1447 204.999 70.5026C203.552 71.8386 201.86 73.3061 201.214 73.7879C199.567 74.9925 196.806 77.8836 195.982 79.3072C195.136 80.7966 194.757 81.0813 188.924 84.8703C186.363 86.5568 183.268 88.5937 182.066 89.404C180.396 90.5429 179.683 90.8934 179.104 90.8934C178.526 90.8934 178.347 90.8058 178.347 90.4991C178.347 89.9078 179.171 89.2288 183.135 86.6225C189.191 82.5925 190.282 81.804 189.881 81.7383C189.391 81.6507 187.877 82.4173 186.207 83.6438C183.602 85.5274 179.795 87.5424 177.858 88.0461C176.789 88.3308 176.188 87.9804 176.433 87.2138C176.611 86.6882 178.793 84.7827 179.795 84.2571C180.173 84.06 180.819 83.5562 181.242 83.1182C181.665 82.6801 182.467 82.0669 183.023 81.7383C183.58 81.4317 184.27 80.9499 184.604 80.6651C185.005 80.3147 185.45 80.1614 186.163 80.1395C186.875 80.1176 187.454 79.8986 188.3 79.3729C188.924 78.9787 189.77 78.5625 190.193 78.453C190.994 78.2559 191.284 77.5551 190.816 76.9856C190.46 76.5695 190.571 76.438 192.308 75.2991C193.154 74.7297 194.29 73.8098 194.824 73.2185C197.051 70.8968 203.085 65.9689 204.999 64.9395C205.578 64.6329 206.447 63.9758 206.892 63.494C207.337 63.034 208.74 61.9827 209.965 61.1942C212.213 59.7487 212.236 59.7268 213.928 59.683C215.82 59.6392 217.023 59.245 218.76 58.128C219.873 57.4052 220.251 57.23 219.873 57.5804ZM199.945 76.8761C199.945 76.9856 199.722 77.2922 199.455 77.5331C198.854 78.0807 198.609 77.7084 199.188 77.0732C199.589 76.6352 199.945 76.5257 199.945 76.8761ZM175.542 77.6865C175.408 78.5187 174.696 79.4824 174.451 79.2415C174.317 79.1101 175.408 76.8761 175.609 76.8761C175.653 76.8761 175.631 77.2484 175.542 77.6865ZM75.7029 77.9055C75.6806 78.1902 74.5673 78.913 74.4115 78.7378C74.3224 78.6721 74.5005 78.4092 74.8122 78.1902C75.3912 77.7303 75.7029 77.6427 75.7029 77.9055ZM104.648 78.0807C105.071 78.2997 105.116 78.4092 104.871 78.4968C102.466 79.351 97.9685 80.7308 97.9685 80.6213C97.9908 80.3804 100.752 78.6283 101.152 78.6283C101.353 78.6283 101.531 78.5406 101.531 78.453C101.531 78.1902 102.644 77.796 103.424 77.7741C103.802 77.7741 104.336 77.9055 104.648 78.0807ZM188.812 78.6063C188.812 78.8692 187.053 80.03 186.897 79.8767C186.697 79.6796 187.031 79.2853 187.788 78.8254C188.545 78.3654 188.812 78.2997 188.812 78.6063ZM101.041 80.5118C100.351 80.8623 100.195 81.1689 100.796 80.928C101.063 80.8404 100.997 80.9937 100.596 81.4098C99.683 82.3297 96.5658 84.1257 95.2966 84.4542C94.6955 84.6075 93.7603 85.0236 93.2482 85.3522C91.5783 86.4473 89.0622 87.3234 89.0622 86.8196C89.0845 86.4911 92.558 84.3228 93.0478 84.3228C93.2927 84.3228 93.6712 84.0819 93.8716 83.7752C94.1388 83.3591 94.3615 83.2715 94.7623 83.3591C95.497 83.5562 96.8107 82.6582 97.0333 81.8259C97.1892 81.2784 97.3673 81.147 98.3025 80.9061C98.9259 80.7747 99.6607 80.5556 99.9724 80.4242C100.284 80.2928 100.774 80.1833 101.086 80.1833H101.642L101.041 80.5118ZM92.1794 83.7533C92.1794 84.2133 87.2142 87.5205 85.0544 88.528C83.4068 89.2945 80.5345 90.0173 80.2451 89.7545C80.0447 89.5355 85.2548 87.0824 86.6576 86.732C87.8376 86.4254 88.4611 86.0968 89.4408 85.2646C91.556 83.4905 92.1794 83.1401 92.1794 83.7533ZM190.816 85.9654C190.816 86.3816 188.835 88.5499 187.387 89.6888C186.786 90.1706 185.628 91.1781 184.804 91.9228C183.201 93.3464 182.288 93.894 180.396 94.5072C179.015 94.9453 178.57 94.8357 178.57 94.0692C178.57 93.6311 178.882 93.3245 180.195 92.4922C181.064 91.9228 182.6 90.9591 183.58 90.3239C184.56 89.7107 185.606 89.0755 185.895 88.9222C186.185 88.7689 187.343 87.9804 188.456 87.1481C189.569 86.3159 190.549 85.6369 190.66 85.6369C190.749 85.6369 190.816 85.7902 190.816 85.9654ZM82.3826 87.8052C82.3826 88.0242 81.0912 88.5937 80.913 88.4404C80.8462 88.3746 80.9576 88.1556 81.158 87.9585C81.5365 87.5862 82.3826 87.4767 82.3826 87.8052ZM76.3708 88.7032C76.3708 88.9222 74.3224 89.5793 73.6099 89.5793C72.8751 89.5793 73.5208 89.1412 74.7232 88.8127C76.0814 88.4404 76.3708 88.4185 76.3708 88.7032ZM71.4279 97.5735C71.0271 97.9896 63.7685 102.282 63.6126 102.217C63.2564 102.107 66.7966 99.4352 68.0212 98.8876C69.2013 98.3401 71.2943 97.4859 71.4501 97.464C71.4947 97.464 71.4947 97.5078 71.4279 97.5735ZM132.169 116.541C132.258 116.716 132.747 116.76 133.504 116.672C134.417 116.584 134.707 116.628 134.707 116.825C134.707 117.001 134.573 117.22 134.44 117.329C134.061 117.614 128.561 120.461 128.383 120.461C128.138 120.461 128.25 119.016 128.539 118.643C128.806 118.271 131.567 116.344 131.857 116.322C131.946 116.3 132.079 116.409 132.169 116.541Z" fill="#EFC731"/>
<path d="M94.6289 84.1034C94.6289 84.2131 94.7404 84.3228 94.8519 84.3228C94.9858 84.3228 95.075 84.2131 95.075 84.1034C95.075 83.9717 94.9858 83.884 94.8519 83.884C94.7404 83.884 94.6289 83.9717 94.6289 84.1034Z" fill="#EFC731"/>
<path d="M158.397 36.3573C157.462 36.7734 156.438 37.8028 156.661 38.1314C156.95 38.5913 157.885 38.2628 158.954 37.321C159.578 36.7734 160.09 36.2259 160.09 36.1164C160.09 35.8097 159.399 35.8974 158.397 36.3573Z" fill="#EFC731"/>
<path d="M284.265 37.1896C283.753 37.7371 283.798 37.9343 284.399 37.8467C284.711 37.8029 284.911 37.6057 284.955 37.2772C285.045 36.6858 284.755 36.6639 284.265 37.1896Z" fill="#EFC731"/>
<path d="M282.929 38.7885C282.551 39.0075 282.395 39.6427 282.729 39.6427C283.041 39.6427 283.709 38.8104 283.508 38.7009C283.397 38.6352 283.152 38.679 282.929 38.7885Z" fill="#EFC731"/>
<path d="M128.74 39.358C128.651 39.577 128.094 40.3654 127.515 41.1101C126.647 42.1833 126.268 42.468 125.622 42.5995C124.643 42.7747 123.485 43.4317 123.017 44.0888C122.839 44.3516 122.683 44.9649 122.683 45.4686C122.683 46.279 122.55 46.4761 121.459 47.5055C120.19 48.6882 119.789 48.7758 119.789 47.8559C119.789 47.5712 119.522 47.0237 119.21 46.6513C118.72 46.0819 118.653 45.8848 118.854 45.4686C119.21 44.702 120.435 43.3879 121.147 43.0156C121.503 42.8404 121.949 42.4023 122.149 42.03C122.483 41.3948 122.461 41.3072 122.149 40.9787C121.815 40.6721 121.726 40.6721 121.169 40.9568C120.835 41.1539 120.212 41.7672 119.811 42.3147C119.388 42.8842 118.497 43.6727 117.829 44.0669C113.421 46.717 110.215 49.3672 110.215 50.3528C110.215 51.4698 111.84 51.0755 114.512 49.3015C116.315 48.1188 117.05 47.834 117.896 48.0531C119.099 48.3597 119.076 49.63 117.852 51.0974C117.562 51.4479 117.34 51.8859 117.34 52.083C117.34 52.5649 114.067 55.6093 113.109 56.0035C112.686 56.2006 112.263 56.4415 112.174 56.5729C111.996 56.8796 112.374 57.3833 112.797 57.3833C113.198 57.3833 113.822 56.7263 113.688 56.3977C113.577 56.113 114.245 55.4559 116.204 53.879L117.406 52.9153L117.251 53.7695C117.161 54.2294 116.939 54.8208 116.761 55.0617C116.583 55.3026 116.449 55.9159 116.449 56.4415C116.449 57.1205 116.293 57.5147 115.892 57.9528C115.536 58.3251 115.38 58.6974 115.447 58.9384C115.536 59.1574 115.469 59.5735 115.336 59.8363C115.135 60.2963 115.135 60.2963 115.38 59.9239C115.536 59.683 115.959 59.2231 116.315 58.8946C116.805 58.4346 116.917 58.2156 116.738 57.9966C116.293 57.449 117.184 55.4559 118.408 54.2732C119.41 53.3095 119.522 53.0905 119.611 52.0173C119.677 51.1193 119.922 50.5499 120.568 49.5643C121.904 47.615 123.129 46.4323 123.819 46.4323C125.199 46.4323 126.847 45.5124 127.604 44.3297C128.183 43.3879 128.138 42.9499 127.359 42.6433L126.713 42.3585L127.693 41.132C128.472 40.1464 128.829 39.8836 129.408 39.8179C130.32 39.7303 130.41 39.117 129.519 39.0294C129.096 38.9856 128.873 39.0732 128.74 39.358Z" fill="#EFC731"/>
<path d="M188.812 39.8612C188.812 39.9709 188.924 40.0806 189.058 40.0806C189.169 40.0806 189.214 39.9709 189.147 39.8612C189.08 39.7296 188.969 39.6418 188.902 39.6418C188.857 39.6418 188.812 39.7296 188.812 39.8612Z" fill="#EFC731"/>
<path d="M280.079 41.0444C279.211 41.6796 278.766 42.2052 278.766 42.6214C278.766 42.6652 279.033 42.709 279.367 42.709C279.768 42.709 280.213 42.4243 280.814 41.7891C282.261 40.2341 281.816 39.796 280.079 41.0444Z" fill="#EFC731"/>
<path d="M190.037 41.1754C189.97 41.2851 189.992 41.3948 190.126 41.3948C190.238 41.3948 190.416 41.2851 190.483 41.1754C190.55 41.0438 190.528 40.956 190.394 40.956C190.282 40.956 190.104 41.0438 190.037 41.1754Z" fill="#EFC731"/>
<path d="M62.6332 44.4829C62.032 44.7019 61.6758 45.3371 61.6758 46.1475C61.6758 46.6074 61.3863 47.0454 60.6293 47.7901C60.0281 48.3377 59.3379 48.9071 59.0707 49.0385C58.7812 49.1918 58.5586 49.4109 58.5586 49.5423C58.5586 49.6956 58.1801 50.1993 57.7348 50.7031L56.8887 51.5792L57.7793 50.7469C58.2914 50.3088 58.7812 49.9365 58.8703 49.9365C58.9816 49.9365 59.6496 49.3014 60.3844 48.5129C61.6312 47.1769 61.7648 47.0892 62.7 47.0892C63.5461 47.0892 63.8133 46.9578 64.459 46.3227C64.882 45.9065 65.2383 45.4685 65.2383 45.359C65.2383 45.1619 64.3254 44.68 63.457 44.3953C63.2789 44.3515 62.9004 44.3734 62.6332 44.4829Z" fill="#EFC731"/>
<path d="M188.701 44.6802C188.634 44.7897 188.389 44.8992 188.189 44.8992C187.565 44.8992 186.029 46.0381 184.025 47.9436L182.133 49.7614L182.377 50.6813C182.578 51.4917 182.533 51.7545 182.066 52.8277C181.465 54.1637 181.153 54.4047 179.817 54.6018C178.681 54.777 176.744 55.7188 176.41 56.2663C176.21 56.5949 176.21 56.7701 176.455 57.0767C177.101 57.9528 180.106 57.2957 182.288 55.8064C183.246 55.1712 183.29 55.0836 183.157 54.339C183.09 53.9009 183.179 53.1124 183.335 52.5649C183.602 51.6669 183.713 51.5574 184.493 51.4041C186.586 50.9879 187.053 50.7689 188.345 49.5643C189.48 48.5349 189.703 48.2064 189.703 47.615C189.703 47.0237 189.836 46.8266 190.371 46.5418C191.083 46.1914 191.083 45.7753 190.393 45.7753C190.148 45.7753 189.859 45.5124 189.703 45.1182C189.436 44.4611 188.968 44.264 188.701 44.6802Z" fill="#EFC731"/>
<path d="M159.422 49.5202C159.422 49.6299 159.533 49.6738 159.645 49.608C159.778 49.5422 159.868 49.4325 159.868 49.3667C159.868 49.3228 159.778 49.2789 159.645 49.2789C159.533 49.2789 159.422 49.3886 159.422 49.5202Z" fill="#EFC731"/>
<path d="M271.819 50.1776C271.284 50.4842 271.307 51.0318 271.863 51.0318C272.308 51.0318 272.843 50.3309 272.598 50.0681C272.42 49.8929 272.264 49.9148 271.819 50.1776Z" fill="#EFC731"/>
<path d="M175.676 51.4915C175.676 51.6012 175.787 51.6451 175.899 51.5792C176.033 51.5134 176.122 51.4037 176.122 51.3379C176.122 51.294 176.033 51.2501 175.899 51.2501C175.787 51.2501 175.676 51.3598 175.676 51.4915Z" fill="#EFC731"/>
<path d="M55.8197 52.302C55.3744 52.6305 54.6842 53.2657 54.3056 53.7256C53.9271 54.1856 53.2369 54.7331 52.7693 54.974C51.7451 55.4778 51.5224 55.8063 51.8564 56.1348C52.0568 56.332 52.3685 56.1129 53.1701 55.2369C53.749 54.6017 54.4838 53.9008 54.7955 53.7037C55.3076 53.3752 56.9552 51.6668 56.7549 51.6887C56.7103 51.7106 56.2873 51.9735 55.8197 52.302Z" fill="#EFC731"/>
<path d="M187.944 52.6524C187.677 52.959 187.833 53.2219 188.3 53.2219C188.634 53.2219 188.701 52.6524 188.389 52.4772C188.278 52.4115 188.078 52.4772 187.944 52.6524Z" fill="#EFC731"/>
<path d="M190.683 54.1418L190.26 54.6456L190.772 54.2294C191.039 53.9885 191.262 53.7695 191.262 53.7257C191.262 53.5505 191.084 53.6819 190.683 54.1418Z" fill="#EFC731"/>
<path d="M171.111 54.0978C171.044 54.2294 171.134 54.2514 171.312 54.1856C171.714 54.032 171.78 53.8784 171.468 53.8784C171.334 53.8784 171.178 53.9662 171.111 54.0978Z" fill="#EFC731"/>
<path d="M189.703 54.3166C189.703 54.4263 189.815 54.536 189.926 54.536C190.06 54.536 190.149 54.4263 190.149 54.3166C190.149 54.185 190.06 54.0972 189.926 54.0972C189.815 54.0972 189.703 54.185 189.703 54.3166Z" fill="#EFC731"/>
<path d="M189.57 55.4559L188.924 56.1786L189.659 55.5435C190.037 55.1712 190.371 54.8645 190.371 54.8207C190.371 54.6455 190.193 54.7988 189.57 55.4559Z" fill="#EFC731"/>
<path d="M169.775 55.1931C169.709 55.3026 169.798 55.4121 169.976 55.4121C170.176 55.4121 170.332 55.3026 170.332 55.1931C170.332 55.0617 170.243 54.9741 170.132 54.9741C169.998 54.9741 169.842 55.0617 169.775 55.1931Z" fill="#EFC731"/>
<path d="M265.339 56.0035C265.005 56.3321 265.206 56.7263 265.718 56.7263C266.23 56.7263 266.631 56.2444 266.364 55.9816C266.186 55.8064 265.518 55.8064 265.339 56.0035Z" fill="#EFC731"/>
<path d="M187.811 57.4272L186.92 58.369L187.877 57.4929C188.389 57.0329 188.812 56.6168 188.812 56.573C188.812 56.3978 188.612 56.573 187.811 57.4272Z" fill="#EFC731"/>
<path d="M155.414 56.9234C154.345 57.2519 153.41 57.8432 153.41 58.1937C153.41 58.6974 154.791 58.4346 155.904 57.7118C157.084 56.9453 156.817 56.5072 155.414 56.9234Z" fill="#EFC731"/>
<path d="M50.4316 57.1638C50.4985 57.2735 50.61 57.3832 50.6769 57.3832C50.7215 57.3832 50.7661 57.2735 50.7661 57.1638C50.7661 57.0322 50.6546 56.9444 50.5208 56.9444C50.4093 56.9444 50.3647 57.0322 50.4316 57.1638Z" fill="#EFC731"/>
<path d="M61.3865 57.5146C61.0748 57.8213 61.2306 58.2812 61.6314 58.2155C61.8318 58.1717 62.0099 57.9965 62.0099 57.8432C62.0099 57.4927 61.6091 57.2956 61.3865 57.5146Z" fill="#EFC731"/>
<path d="M174.184 57.8213C173.538 58.0841 173.538 58.3907 174.184 58.5222C174.54 58.5879 174.807 58.4565 175.075 58.106C175.453 57.6242 175.453 57.6023 175.075 57.6242C174.852 57.6242 174.451 57.7118 174.184 57.8213Z" fill="#EFC731"/>
<path d="M170.777 58.0403C170.777 58.1499 170.866 58.2594 170.978 58.2594C171.111 58.2594 171.267 58.1499 171.334 58.0403C171.401 57.9089 171.312 57.8213 171.134 57.8213C170.933 57.8213 170.777 57.9089 170.777 58.0403Z" fill="#EFC731"/>
<path d="M180.04 58.5441C179.55 59.6611 179.706 60.0991 180.218 59.0478C180.418 58.6098 180.552 58.128 180.507 57.9746C180.44 57.8213 180.24 58.0842 180.04 58.5441Z" fill="#EFC731"/>
<path d="M109.992 58.719C109.992 58.8287 110.103 58.8726 110.215 58.8068C110.349 58.741 110.438 58.6313 110.438 58.5654C110.438 58.5216 110.349 58.4777 110.215 58.4777C110.103 58.4777 109.992 58.5874 109.992 58.719Z" fill="#EFC731"/>
<path d="M108.99 59.3541C108.923 59.4638 108.968 59.5735 109.079 59.5735C109.213 59.5735 109.325 59.4638 109.325 59.3541C109.325 59.2225 109.28 59.1348 109.236 59.1348C109.169 59.1348 109.057 59.2225 108.99 59.3541Z" fill="#EFC731"/>
<path d="M107.877 59.9896C107.743 60.2305 108.077 60.4933 108.3 60.2962C108.5 60.0991 108.456 59.7925 108.233 59.7925C108.099 59.7925 107.966 59.8801 107.877 59.9896Z" fill="#EFC731"/>
<path d="M130.365 60.5372C129.475 60.9095 128.985 61.479 129.319 61.8075C129.653 62.1361 130.543 61.8732 131.345 61.1943C132.414 60.3182 131.813 59.924 130.365 60.5372Z" fill="#EFC731"/>
<path d="M114.512 60.8219C114.111 60.9533 114.156 61.5447 114.534 61.5447C114.957 61.5447 115.225 61.1285 114.98 60.8876C114.868 60.8 114.646 60.7781 114.512 60.8219Z" fill="#EFC731"/>
<path d="M260.508 61.9824C260.508 62.0921 260.619 62.2018 260.731 62.2018C260.865 62.2018 260.954 62.0921 260.954 61.9824C260.954 61.8507 260.865 61.763 260.731 61.763C260.619 61.763 260.508 61.8507 260.508 61.9824Z" fill="#EFC731"/>
<path d="M114.111 62.2014C114.044 62.3111 114.089 62.4208 114.2 62.4208C114.334 62.4208 114.446 62.3111 114.446 62.2014C114.446 62.0697 114.401 61.982 114.357 61.982C114.29 61.982 114.178 62.0697 114.111 62.2014Z" fill="#EFC731"/>
<path d="M166.547 62.2017C166.369 62.3112 166.28 62.4645 166.369 62.5302C166.591 62.7492 167.46 62.4207 167.326 62.1798C167.148 61.9389 166.97 61.9389 166.547 62.2017Z" fill="#EFC731"/>
<path d="M177.056 63.3188C177.101 63.4502 177.234 63.5378 177.346 63.5378C177.457 63.5378 177.591 63.4502 177.635 63.3188C177.68 63.1873 177.546 63.0778 177.346 63.0778C177.145 63.0778 177.012 63.1873 177.056 63.3188Z" fill="#EFC731"/>
<path d="M41.503 64.7204C41.2803 65.268 41.7257 65.5746 42.3046 65.268C42.8835 64.9614 42.7944 64.5233 42.1264 64.4357C41.837 64.3919 41.5698 64.5014 41.503 64.7204Z" fill="#EFC731"/>
<path d="M40.657 64.7643C40.4121 65.0052 40.5234 65.268 40.8574 65.268C41.0355 65.268 41.1914 65.1804 41.1914 65.0709C41.1914 64.7862 40.8351 64.589 40.657 64.7643Z" fill="#EFC731"/>
<path d="M100.507 65.071C100.44 65.2024 100.529 65.4652 100.73 65.6623C101.064 65.9909 101.108 65.9909 101.442 65.6623C101.865 65.2462 101.687 64.83 101.086 64.83C100.863 64.83 100.596 64.9396 100.507 65.071Z" fill="#EFC731"/>
<path d="M161.359 65.3337C160.958 65.5965 160.958 65.6403 161.314 65.9251C161.648 66.1879 161.782 66.1879 162.272 65.9251C162.583 65.7499 162.828 65.487 162.806 65.3775C162.762 65.0271 161.804 65.0052 161.359 65.3337Z" fill="#EFC731"/>
<path d="M145.595 65.9907C145.172 66.2535 144.815 66.6478 144.771 66.8668C144.637 67.48 145.684 67.3267 146.352 66.6259C147.443 65.5089 146.953 65.0927 145.595 65.9907Z" fill="#EFC731"/>
<path d="M70.9383 66.4069C70.7379 66.6697 70.582 66.9763 70.582 67.0858C70.582 67.3706 71.2277 66.823 71.4949 66.3193C71.8066 65.7498 71.3613 65.8155 70.9383 66.4069Z" fill="#EFC731"/>
<path d="M110.972 66.604C110.749 66.9764 111.261 67.3925 111.573 67.0859C111.84 66.8231 111.662 66.3631 111.328 66.3631C111.217 66.3631 111.061 66.4726 110.972 66.604Z" fill="#EFC731"/>
<path d="M36.1816 66.9545C35.714 67.4145 35.8698 67.7868 36.5378 67.7868C36.9163 67.7868 37.0944 67.6554 37.139 67.3269C37.228 66.7355 36.6269 66.4946 36.1816 66.9545Z" fill="#EFC731"/>
<path d="M121.347 67.283C120.056 67.5677 118.631 68.5095 118.364 69.2761C118.008 70.2179 118.386 70.3493 119.9 69.8018C122.327 68.9038 123.529 68.0277 123.285 67.3487C123.129 66.9764 122.795 66.9764 121.347 67.283Z" fill="#EFC731"/>
<path d="M153.855 68.3339C153.855 68.4436 153.967 68.5533 154.079 68.5533C154.212 68.5533 154.302 68.4436 154.302 68.3339C154.302 68.2023 154.212 68.1145 154.079 68.1145C153.967 68.1145 153.855 68.2023 153.855 68.3339Z" fill="#EFC731"/>
<path d="M68.9567 69.1439C68.8674 69.2097 68.8005 69.3852 68.8005 69.5169C68.8005 69.6485 68.9121 69.6266 69.0682 69.473C69.202 69.3413 69.2689 69.1658 69.2243 69.1C69.1574 69.0342 69.0236 69.0561 68.9567 69.1439Z" fill="#EFC731"/>
<path d="M91.5785 70.8968C91.4227 70.9626 91.2891 71.1816 91.2891 71.4225C91.2891 71.9262 92.0684 71.9919 92.2465 71.532C92.4023 71.1597 91.957 70.7654 91.5785 70.8968Z" fill="#EFC731"/>
<path d="M146.33 71.8605C146.374 71.9919 146.508 72.0795 146.619 72.0795C146.73 72.0795 146.864 71.9919 146.909 71.8605C146.953 71.7291 146.819 71.6196 146.619 71.6196C146.419 71.6196 146.285 71.7291 146.33 71.8605Z" fill="#EFC731"/>
<path d="M142.945 73.1527C142.945 73.2622 143.101 73.3717 143.279 73.3717C143.457 73.3717 143.613 73.2622 143.613 73.1527C143.613 73.0213 143.457 72.9337 143.279 72.9337C143.101 72.9337 142.945 73.0213 142.945 73.1527Z" fill="#EFC731"/>
<path d="M217.646 73.2842C215.932 73.7003 214.752 74.4012 213.483 75.7372C211.145 78.1903 212.213 79.5263 215.598 78.4312C217.557 77.796 218.426 77.7522 218.715 78.2998C218.849 78.5407 219.138 79.0006 219.361 79.3292C219.828 80.0081 219.895 81.8917 219.517 82.6364C219.383 82.8992 219.027 83.3591 218.76 83.6658C218.492 83.9724 218.203 84.6075 218.136 85.0894C217.98 86.0531 216.422 88.4185 215.999 88.309C215.865 88.2871 215.687 88.4185 215.598 88.6156C215.531 88.8127 215.286 89.1851 215.041 89.4479C214.819 89.6888 213.928 90.7182 213.06 91.7257C212.191 92.7113 211.145 93.7845 210.699 94.1349C210.254 94.4635 209.742 94.9234 209.542 95.1643C208.606 96.3032 206.491 98.143 205.667 98.5153C205.155 98.7563 204.51 99.26 204.242 99.6104C203.931 100.027 203.508 100.311 203.129 100.355C202.751 100.399 202.483 100.574 202.439 100.793C202.328 101.363 202.906 101.275 203.508 100.662C203.819 100.311 204.309 100.092 204.821 100.048C205.445 100.005 205.69 99.8514 205.912 99.3914C206.291 98.6029 208.272 96.9165 209.475 96.347C210.076 96.0623 210.655 95.5367 211.011 94.9891C211.635 94.0254 212.436 93.215 213.349 92.6456C214.596 91.9009 216.422 90.0393 216.422 89.5355C216.422 88.8784 218.381 86.513 219.561 85.7465C220.452 85.177 220.474 85.1332 220.363 84.2133C220.251 83.4248 220.318 83.1401 220.942 82.2421C222.033 80.6214 223.302 78.5845 223.547 78.015C223.814 77.4018 223.636 76.5695 223.168 76.1753C222.99 76.022 222.612 75.4087 222.344 74.7954C222.055 74.2041 221.676 73.5689 221.454 73.3937C220.919 72.9557 219.183 72.89 217.646 73.2842Z" fill="#EFC731"/>
<path d="M144.059 73.7222C144.059 73.9193 144.214 74.0288 144.437 73.985C144.994 73.8755 145.061 73.3718 144.526 73.3718C144.259 73.3718 144.059 73.5032 144.059 73.7222Z" fill="#EFC731"/>
<path d="M7.45895 74.2478C7.52574 74.3573 7.6816 74.4669 7.8152 74.4669C7.92652 74.4669 8.01559 74.3573 8.01559 74.2478C8.01559 74.1164 7.85973 74.0288 7.65934 74.0288C7.48121 74.0288 7.39215 74.1164 7.45895 74.2478Z" fill="#EFC731"/>
<path d="M244.254 75.1236C244.254 75.2333 244.365 75.343 244.477 75.343C244.611 75.343 244.7 75.2333 244.7 75.1236C244.7 74.9919 244.611 74.9042 244.477 74.9042C244.365 74.9042 244.254 74.9919 244.254 75.1236Z" fill="#EFC731"/>
<path d="M130.989 76.1533C130.833 76.219 130.699 76.4599 130.699 76.7009C130.699 77.0075 130.833 77.117 131.189 77.0513C131.479 77.0075 131.723 76.8323 131.768 76.6352C131.835 76.2409 131.434 76 130.989 76.1533Z" fill="#EFC731"/>
<path d="M282.662 76.6568C282.595 76.7665 282.64 76.8762 282.751 76.8762C282.885 76.8762 282.997 76.7665 282.997 76.6568C282.997 76.5251 282.952 76.4374 282.907 76.4374C282.84 76.4374 282.729 76.5251 282.662 76.6568Z" fill="#EFC731"/>
<path d="M74.2558 80.8404C74.0332 81.1689 74.2781 81.3441 74.7011 81.1689C74.9015 81.1032 74.9906 80.9499 74.9238 80.8185C74.7457 80.5338 74.4339 80.5338 74.2558 80.8404Z" fill="#EFC731"/>
<path d="M128.072 80.9499C127.56 81.3004 127.471 82.0888 127.782 83.2277C127.916 83.7096 128.027 83.7534 128.918 83.7096C129.653 83.6658 130.053 83.4906 130.432 83.0963C131.078 82.3955 131.055 81.8041 130.365 81.1471C129.742 80.5119 128.807 80.4462 128.072 80.9499Z" fill="#EFC731"/>
<path d="M119.566 82.7893C119.566 82.899 119.678 83.0087 119.789 83.0087C119.923 83.0087 120.012 82.899 120.012 82.7893C120.012 82.6577 119.923 82.5699 119.789 82.5699C119.678 82.5699 119.566 82.6577 119.566 82.7893Z" fill="#EFC731"/>
<path d="M247.349 83.9505C245.612 84.8266 244.41 86.3597 244.009 88.2433C243.675 89.7764 243.185 90.7401 242.139 91.9228C241.048 93.1712 237.53 96.0623 235.281 97.5516C234.279 98.2087 232.364 99.5885 231.028 100.596C229.603 101.691 227.443 103.071 225.796 103.925C224.17 104.779 222.011 106.159 220.652 107.189C216.734 110.233 214.908 111.24 210.41 112.905C208.874 113.474 207.026 114.263 206.291 114.635C205.556 115.029 204.488 115.424 203.886 115.489C203.307 115.577 202.439 115.84 201.949 116.081C201.482 116.322 200.858 116.519 200.613 116.519C200.057 116.519 198.832 117.636 198.832 118.14C198.832 118.337 198.431 118.665 197.897 118.906C196.227 119.629 190.861 121.775 190.705 121.775C190.594 121.775 189.792 122.126 188.902 122.542C188.011 122.958 186.964 123.308 186.541 123.308C185.784 123.308 183.847 124.294 181.955 125.652C181.443 126.024 180.574 126.419 180.062 126.484C178.904 126.681 178.548 126.857 177.101 127.93C175.72 128.981 174.785 129.353 173.004 129.638C171.98 129.813 171.356 130.054 170.733 130.536C169.486 131.522 168.462 131.894 166.324 132.047C165.278 132.135 164.142 132.376 163.764 132.573C161.76 133.646 160.513 134.106 157.151 135.026C150.182 136.91 143.146 138.202 139.717 138.224C137.29 138.246 135.82 137.961 132.97 136.866C130.321 135.858 128.094 135.552 125.445 135.814C123.908 135.968 122.728 135.968 121.57 135.814C119.477 135.508 117.963 135.574 117.83 135.99C117.741 136.231 117.897 136.253 118.52 136.143C118.988 136.055 119.366 136.099 119.455 136.231C119.522 136.34 119.9 136.45 120.257 136.45C120.969 136.45 121.793 136.8 122.06 137.194C122.149 137.326 122.238 137.698 122.238 138.005C122.238 138.859 123.775 140.458 125.177 141.071C126.246 141.531 126.669 141.575 129.475 141.575C131.278 141.553 134.084 141.356 136.154 141.093C138.114 140.83 140.897 140.523 142.322 140.392C145.417 140.129 149.447 139.297 151.562 138.508C154.39 137.479 158.865 136.033 160.379 135.683C161.203 135.486 162.517 135.355 163.274 135.398C164.877 135.442 165.233 135.289 166.881 133.821C168.306 132.551 169.531 132.113 170.755 132.42C171.802 132.704 172.358 132.507 173.516 131.5C174.629 130.492 176.143 129.791 176.388 130.164C176.522 130.361 176.566 130.361 176.566 130.164C176.566 130.01 176.923 129.835 177.346 129.77C177.769 129.704 178.459 129.616 178.882 129.55C179.394 129.463 179.995 129.091 180.641 128.455C181.198 127.93 181.932 127.426 182.289 127.338C185.918 126.528 186.497 126.287 187.432 125.104C187.811 124.644 188.545 124.075 189.08 123.856C189.614 123.615 190.46 123.155 190.995 122.805C192.108 122.082 195.759 120.352 196.65 120.133C197.095 120.023 197.251 120.067 197.34 120.395C197.429 120.702 197.452 120.68 197.474 120.286C197.496 119.979 197.697 119.716 198.075 119.585C198.587 119.388 198.765 119.454 199.611 120.22C201.459 121.885 203.419 121.885 204.933 120.242C205.601 119.497 205.734 119.213 205.734 118.359C205.734 116.606 205.801 116.541 210.188 114.986C211.479 114.526 214.129 113.54 216.088 112.795C218.047 112.051 220.786 111.153 222.166 110.802C225.439 109.97 226.82 109.269 229.113 107.21C230.338 106.115 231.629 105.217 232.787 104.648C236.105 103.005 237.686 101.998 239.689 100.224C241.56 98.5591 244.543 96.2813 246.926 94.6825C247.482 94.3102 249.041 93.5436 250.399 92.996C254.318 91.3753 255.476 90.105 255.498 87.3672C255.498 86.1407 255.409 85.8341 254.897 85.1551C253.939 83.9286 252.292 83.2277 250.355 83.2277C248.974 83.2277 248.551 83.3372 247.349 83.9505Z" fill="#EFC731"/>
<path d="M44.0859 84.2352C44.0859 84.4323 44.2418 84.5418 44.4645 84.498C45.0211 84.3885 45.0879 83.8848 44.5535 83.8848C44.2863 83.8848 44.0859 84.0162 44.0859 84.2352Z" fill="#EFC731"/>
<path d="M119.188 85.7683C119.032 86.1626 119.433 86.6225 119.767 86.4254C120.145 86.1845 120.056 85.4179 119.678 85.4179C119.477 85.4179 119.277 85.5712 119.188 85.7683Z" fill="#EFC731"/>
<path d="M231.117 86.3158C231.117 86.6224 231.229 86.7319 231.496 86.6881C232.075 86.5786 232.141 85.8558 231.585 85.8558C231.251 85.8558 231.117 85.9873 231.117 86.3158Z" fill="#EFC731"/>
<path d="M222.122 87.6299C220.808 88.6374 221.921 90.6524 223.48 90.1049C224.727 89.6887 224.994 87.9366 223.881 87.4328C223.079 87.0605 222.812 87.1043 222.122 87.6299Z" fill="#EFC731"/>
<path d="M117.785 89.5788C117.785 89.6885 117.897 89.7982 118.008 89.7982C118.142 89.7982 118.231 89.6885 118.231 89.5788C118.231 89.4472 118.142 89.3594 118.008 89.3594C117.897 89.3594 117.785 89.4472 117.785 89.5788Z" fill="#EFC731"/>
<path d="M114.067 90.1487C114 90.3239 114.045 90.5867 114.178 90.7181C114.534 91.0685 115.113 90.7619 115.113 90.2363C115.113 89.7106 114.267 89.623 114.067 90.1487Z" fill="#EFC731"/>
<path d="M43.3066 91.9447C41.1691 93.3683 40.0781 94.2444 40.0781 94.5291C40.0781 94.7043 40.1449 94.8358 40.2117 94.8358C40.5012 94.8358 42.2602 93.4997 42.3715 93.1931C42.4605 93.0179 42.7055 92.8646 42.9281 92.8646C43.418 92.8646 44.3086 92.098 44.3086 91.66C44.3086 91.2438 44.3531 91.2219 43.3066 91.9447Z" fill="#EFC731"/>
<path d="M96.1875 95.1642C96.1875 95.5366 96.232 95.5585 96.7219 95.3613C97.234 95.1642 97.1672 94.8357 96.6328 94.8357C96.3879 94.8357 96.1875 94.989 96.1875 95.1642Z" fill="#EFC731"/>
<path d="M188.278 95.0329C188.211 95.1424 188.3 95.3395 188.478 95.4928C188.746 95.7119 188.812 95.7119 188.812 95.4271C188.812 95.011 188.456 94.7482 188.278 95.0329Z" fill="#EFC731"/>
<path d="M103.914 96.3031C103.646 96.5441 103.736 96.8069 104.092 96.8069C104.27 96.8069 104.426 96.6536 104.426 96.4784C104.426 96.1279 104.159 96.0403 103.914 96.3031Z" fill="#EFC731"/>
<path d="M73.031 97.8145C73.031 98.0116 73.1423 98.1211 73.2982 98.0773C73.699 97.9459 73.7658 97.464 73.3873 97.464C73.1869 97.464 73.031 97.6174 73.031 97.8145Z" fill="#EFC731"/>
<path d="M212.681 97.8144C212.77 98.2743 213.171 98.3182 213.26 97.8363C213.305 97.6173 213.193 97.464 212.971 97.464C212.748 97.464 212.637 97.5954 212.681 97.8144Z" fill="#EFC731"/>
<path d="M94.2059 99.7198C94.0723 99.8513 93.9609 100.092 93.9609 100.267C93.9609 100.684 94.9406 100.508 95.0297 100.07C95.1188 99.6322 94.5398 99.3913 94.2059 99.7198Z" fill="#EFC731"/>
<path d="M107.543 99.6539C107.543 99.7636 107.654 99.8733 107.766 99.8733C107.9 99.8733 107.989 99.7636 107.989 99.6539C107.989 99.5223 107.9 99.4345 107.766 99.4345C107.654 99.4345 107.543 99.5223 107.543 99.6539Z" fill="#EFC731"/>
<path d="M211.746 99.8728C211.746 99.9825 211.858 100.092 211.969 100.092C212.103 100.092 212.192 99.9825 212.192 99.8728C212.192 99.7412 212.103 99.6534 211.969 99.6534C211.858 99.6534 211.746 99.7412 211.746 99.8728Z" fill="#EFC731"/>
<path d="M213.527 100.333C213.527 100.443 213.639 100.487 213.75 100.421C213.884 100.355 213.973 100.245 213.973 100.179C213.973 100.136 213.884 100.092 213.75 100.092C213.639 100.092 213.527 100.201 213.527 100.333Z" fill="#EFC731"/>
<path d="M69.5133 100.574C69.2016 100.881 69.157 101.406 69.4242 101.406C69.6914 101.406 70.1367 100.903 70.1367 100.596C70.1367 100.246 69.8695 100.224 69.5133 100.574Z" fill="#EFC731"/>
<path d="M98.6589 101.384C98.2804 101.625 98.5476 102.063 99.0819 102.063C99.6163 102.063 99.8835 101.625 99.505 101.384C99.3269 101.275 99.1487 101.187 99.0819 101.187C99.0151 101.187 98.837 101.275 98.6589 101.384Z" fill="#EFC731"/>
<path d="M198.164 102.173C198.164 102.348 198.275 102.501 198.387 102.501C198.52 102.501 198.609 102.348 198.609 102.173C198.609 101.998 198.52 101.844 198.387 101.844C198.275 101.844 198.164 101.998 198.164 102.173Z" fill="#EFC731"/>
<path d="M68.7561 102.304C67.9768 102.742 68.578 103.772 69.4686 103.487C69.9584 103.334 70.0697 102.742 69.6467 102.326C69.335 102.02 69.2459 102.02 68.7561 102.304Z" fill="#EFC731"/>
<path d="M90.4651 102.414C90.3315 102.764 90.71 103.159 91.1999 103.159C91.5784 103.159 92.0237 102.567 91.8456 102.283C91.6229 101.932 90.621 102.02 90.4651 102.414Z" fill="#EFC731"/>
<path d="M195.603 102.48C195.47 102.72 195.804 102.983 196.026 102.786C196.227 102.589 196.182 102.282 195.96 102.282C195.826 102.282 195.692 102.37 195.603 102.48Z" fill="#EFC731"/>
<path d="M210.566 102.414C210.366 102.633 210.611 102.939 210.989 102.939C211.167 102.939 211.301 102.786 211.301 102.611C211.301 102.282 210.833 102.151 210.566 102.414Z" fill="#EFC731"/>
<path d="M66.7524 102.874C66.9086 102.94 67.1093 102.918 67.1762 102.852C67.2654 102.785 67.1316 102.719 66.8862 102.741C66.6409 102.741 66.574 102.807 66.7524 102.874Z" fill="#EFC731"/>
<path d="M94.7402 104.034C94.6733 104.144 94.7625 104.254 94.9633 104.254C95.164 104.254 95.2532 104.144 95.1863 104.034C95.1194 103.903 95.0079 103.815 94.9633 103.815C94.9187 103.815 94.8071 103.903 94.7402 104.034Z" fill="#EFC731"/>
<path d="M206.024 107.32C204.577 108.174 204.087 109.861 205.066 110.649C205.712 111.153 206.335 111.153 207.226 110.605C208.117 110.08 208.607 109.357 208.785 108.305C208.896 107.648 208.829 107.408 208.518 107.188C207.916 106.75 206.848 106.816 206.024 107.32Z" fill="#EFC731"/>
<path d="M85.856 113.65C85.7892 113.737 85.3662 113.891 84.9208 113.956C83.9634 114.11 83.4958 114.46 83.4958 115.029C83.4958 115.949 85.0322 115.796 85.4775 114.832C85.6333 114.482 85.856 114.044 85.9673 113.825C86.1677 113.452 86.0787 113.299 85.856 113.65Z" fill="#EFC731"/>
<path d="M106.585 114.482C106.496 114.548 106.429 114.745 106.429 114.92C106.429 115.292 107.008 115.292 107.164 114.898C107.342 114.438 106.919 114.131 106.585 114.482Z" fill="#EFC731"/>
<path d="M10.3977 116.256C9.95241 116.738 9.90788 117.395 10.3087 117.395C10.7317 117.395 11.6446 116.365 11.4665 116.103C11.2438 115.752 10.7985 115.818 10.3977 116.256Z" fill="#EFC731"/>
<path d="M111.617 116.694C110.593 117.11 110.192 117.395 110.682 117.373C111.127 117.373 113.287 116.344 112.886 116.322C112.708 116.322 112.129 116.497 111.617 116.694Z" fill="#EFC731"/>
<path d="M51.9457 117.811C49.0734 119.366 46.1343 122.126 44.8429 124.469C44.1972 125.63 43.1062 126.922 40.657 129.441C36.471 133.734 34.9792 135.42 34.289 136.712L33.7546 137.742L34.289 138.333C34.8234 138.881 34.9125 138.903 36.6269 138.771C37.6066 138.706 38.9648 138.574 39.655 138.508L40.9242 138.377L41.4585 139.428C42.1042 140.721 42.839 141.071 43.93 140.633C45.3105 140.085 45.3996 140.085 45.6222 140.677C45.9562 141.531 46.5351 141.706 48.8062 141.706C51.5894 141.684 53.482 140.896 52.7695 140.063C52.3242 139.538 50.7878 139.231 48.7617 139.253C47.2253 139.275 46.7578 139.209 46.3347 138.881C46.023 138.64 45.8449 138.333 45.9339 138.136C46.0453 137.829 48.4722 136.888 49.1625 136.888C49.3183 136.888 49.8082 136.625 50.2312 136.318C50.8324 135.858 51.1441 135.771 51.7453 135.88C52.5914 136.033 53.2816 135.574 53.1703 134.938C53.0589 134.347 52.1015 134.369 51.5671 135.004C51.3 135.311 50.5429 135.749 49.875 135.968C49.207 136.209 48.116 136.603 47.4925 136.866L46.3125 137.326V136.669C46.3125 136.143 46.2011 135.99 45.7113 135.88C45.2437 135.749 45.0433 135.836 44.7984 136.187C44.5535 136.559 44.264 136.669 43.5292 136.669C42.75 136.669 42.4382 136.8 41.9484 137.304C41.2582 138.027 40.6347 138.18 37.9406 138.311C36.2929 138.399 36.0035 138.355 35.625 137.983C34.9125 137.282 35.0906 136.537 36.2707 134.982C37.7625 133.033 42.9726 128.477 44.4867 127.798C49.6968 125.455 55.9535 119.388 54.996 117.614C54.6398 116.957 53.3707 117.044 51.9457 117.811Z" fill="#EFC731"/>
<path d="M78.9317 118.292C78.7086 118.621 78.9986 118.841 79.2885 118.555C79.4446 118.402 79.4446 118.27 79.3108 118.182C79.177 118.117 78.9986 118.16 78.9317 118.292Z" fill="#EFC731"/>
<path d="M37.718 119.914C37.5622 120.308 37.7848 120.68 38.1856 120.68C38.5418 120.68 39.0317 119.935 38.809 119.716C38.5418 119.476 37.8293 119.585 37.718 119.914Z" fill="#EFC731"/>
<path d="M76.3709 120.571C76.0592 120.943 76.2596 121.337 76.794 121.337C77.2838 121.337 77.7959 120.79 77.5955 120.461C77.3951 120.133 76.6826 120.198 76.3709 120.571Z" fill="#EFC731"/>
<path d="M33.5543 120.614C33.2425 120.899 33.4207 121.337 33.8214 121.337C34.2445 121.337 34.6007 120.833 34.3558 120.593C34.1777 120.417 33.7324 120.417 33.5543 120.614Z" fill="#EFC731"/>
<path d="M31.8398 121.228C31.8398 121.403 31.9512 121.556 32.0625 121.556C32.1961 121.556 32.2852 121.403 32.2852 121.228C32.2852 121.052 32.1961 120.899 32.0625 120.899C31.9512 120.899 31.8398 121.052 31.8398 121.228Z" fill="#EFC731"/>
<path d="M28.7225 122.432C28.5222 122.564 28.4999 122.651 28.6557 122.651C28.7893 122.651 28.9897 122.542 29.0565 122.432C29.2347 122.169 29.1456 122.169 28.7225 122.432Z" fill="#EFC731"/>
<path d="M90.3315 124.71C88.5726 125.192 87.3702 126.331 88.2831 126.681C88.5058 126.769 89.0401 126.528 89.6636 126.09C90.198 125.718 91.0218 125.17 91.4671 124.907C92.4245 124.338 92.0237 124.272 90.3315 124.71Z" fill="#EFC731"/>
<path d="M67.4871 126.243C67.2867 126.462 67.3089 126.594 67.5539 126.791C67.7765 126.988 67.9101 126.966 68.1105 126.725C68.3109 126.506 68.2886 126.375 68.0437 126.178C67.8211 125.98 67.6875 126.002 67.4871 126.243Z" fill="#EFC731"/>
<path d="M17.122 129.178C15.9419 129.945 15.2517 130.667 15.5412 130.843C16.0533 131.149 19.1482 129.353 19.1482 128.74C19.1482 128.368 18.0794 128.587 17.122 129.178Z" fill="#EFC731"/>
<path d="M60.0502 130.667C59.8498 130.886 60.0947 131.193 60.4732 131.193C60.6514 131.193 60.785 131.04 60.785 130.865C60.785 130.536 60.3174 130.405 60.0502 130.667Z" fill="#EFC731"/>
<path d="M13.0253 131.85C12.9584 131.96 12.9807 132.069 13.1145 132.069C13.226 132.069 13.4045 131.96 13.4714 131.85C13.5383 131.718 13.516 131.63 13.3822 131.63C13.2707 131.63 13.0922 131.718 13.0253 131.85Z" fill="#EFC731"/>
<path d="M54.6619 133.799C54.5283 134.04 54.8623 134.303 55.085 134.106C55.2854 133.909 55.2408 133.602 55.0182 133.602C54.8846 133.602 54.751 133.69 54.6619 133.799Z" fill="#EFC731"/>
<path d="M45.6445 134.719C45.6445 134.829 45.7561 134.873 45.8676 134.807C46.0014 134.741 46.0906 134.631 46.0906 134.566C46.0906 134.522 46.0014 134.478 45.8676 134.478C45.7561 134.478 45.6445 134.587 45.6445 134.719Z" fill="#EFC731"/>
<path d="M12.3349 135.683C12.1568 136.143 12.4017 136.428 12.9138 136.296C13.515 136.143 13.515 135.354 12.9138 135.354C12.6689 135.354 12.4017 135.508 12.3349 135.683Z" fill="#EFC731"/>
<path d="M17.1443 135.595C17.1443 135.705 17.2558 135.749 17.3673 135.683C17.5012 135.617 17.5904 135.507 17.5904 135.442C17.5904 135.398 17.5012 135.354 17.3673 135.354C17.2558 135.354 17.1443 135.464 17.1443 135.595Z" fill="#EFC731"/>
<path d="M116.226 136.121C115.981 136.406 116.048 136.45 116.516 136.45C117.184 136.45 117.495 136.121 116.983 135.924C116.516 135.749 116.538 135.749 116.226 136.121Z" fill="#EFC731"/>
<path d="M3.74062 138.903C3.16172 139.056 2.49375 139.56 1.46953 140.655C0.667969 141.487 0 142.21 0 142.232C0 142.275 0.823828 142.013 1.82578 141.684C2.82773 141.334 3.67383 141.049 3.71836 141.049C3.76289 141.049 4.18594 140.699 4.67578 140.26C5.41055 139.603 5.52187 139.406 5.32148 139.056C5.07656 138.596 4.94297 138.574 3.74062 138.903Z" fill="#EFC731"/>
</g>
<defs>
<clipPath id="clip0_158_1217">
<rect width="285" height="152" fill="white"/>
</clipPath>
</defs>
</svg>
